<?xml version="1.0" encoding="utf-8"?>
<!-- Generator: Adobe Illustrator 16.0.0, SVG Export Plug-In . SVG Version: 6.00 Build 0)  -->
<!DOCTYPE svg PUBLIC "-//W3C//DTD SVG 1.1//EN" "http://www.w3.org/Graphics/SVG/1.1/DTD/svg11.dtd">
<svg version="1.1" id="print" xmlns="http://www.w3.org/2000/svg" xmlns:xlink="http://www.w3.org/1999/xlink" x="0px" y="0px"
	 width="198.425px" height="85.039px" viewBox="0 0 198.425 85.039" enable-background="new 0 0 198.425 85.039"
	 xml:space="preserve">
<g opacity="0.1">
	<path fill="#7FC466" d="M71.239,14.349c-4.209-0.025-6.99,1.791-9.193,4.76c-1.416-3.619-4.764-4.843-7.428-4.858
		c-3.941-0.023-7.362,1.734-9.404,4.757h-0.107l0.006-0.994c0.014-2.302-1.362-3.828-3.653-3.841
		c-2.29-0.014-3.684,1.496-3.699,3.797l-0.214,39.564h-0.098l-13.986-22.46c-0.876-1.456-2.349-2.092-4.022-2.103
		c-3.445-0.021-5.077,1.322-5.098,4.609l-0.17,27.6c-0.015,2.561,1.453,3.826,3.865,3.84c2.411,0.015,3.895-1.23,3.911-3.795
		l0.123-20.059l0.098,0.001l13.891,21.831c1.023,1.602,1.858,2.141,4.416,2.152c3.396,0.021,4.785-1.76,4.804-4.901l0.207-37.86
		c0.022-3.56,2.7-5.896,5.684-5.879c3.037,0.017,4.248,2.223,4.23,4.943l-0.084,13.708c-0.012,2.041,0.829,3.824,3.868,3.843
		c3.035,0.018,3.899-1.756,3.912-3.796l0.078-12.714c0.021-3.558,2.7-5.897,5.683-5.879c3.037,0.017,4.25,2.224,4.231,4.942
		l-0.083,13.709c-0.013,2.04,0.829,3.825,3.866,3.841c3.037,0.019,3.9-1.755,3.913-3.796l0.095-15.643
		C80.921,16.814,76.62,14.381,71.239,14.349L71.239,14.349z"/>
	<path fill="#7FC466" d="M91.362,62.887c-0.73-0.168-1.571-0.395-1.571-1.101c0-0.705,0.589-1.199,1.655-1.199
		c2.146,0,1.949,1.511,3.014,1.511c0.561,0,1.05-0.34,1.05-0.918c0-1.354-2.115-2.369-3.911-2.369c-1.949,0-4.022,0.846-4.022,3.104
		c0,1.087,0.377,2.244,2.465,2.78l2.594,0.662c0.786,0.197,0.982,0.648,0.982,1.061c0,0.678-0.66,1.34-1.852,1.34
		c-2.328,0-2.006-1.834-3.252-1.834c-0.561,0-0.966,0.396-0.966,0.959c0,1.102,1.303,2.567,4.219,2.567
		c2.776,0,4.148-1.367,4.148-3.202c0-1.186-0.532-2.439-2.633-2.922L91.362,62.887L91.362,62.887z M97.882,67.559
		c0,1.213,0.616,1.834,2.101,1.834c0.981,0,1.486-0.324,1.486-0.916c0-0.438-0.267-0.689-0.716-0.689h-0.293
		c-0.365,0-0.533-0.172-0.533-0.479v-4.121h0.617c0.603,0,0.925-0.186,0.925-0.679s-0.322-0.677-0.925-0.677h-0.617v-1.256
		c0-0.68-0.407-1.031-1.023-1.031c-0.617,0-1.022,0.354-1.022,1.031v1.256h-0.351c-0.575,0-0.813,0.227-0.813,0.677
		c0,0.451,0.238,0.679,0.813,0.679h0.351V67.559L97.882,67.559z M102.719,68.15c0,0.635,0.518,1.156,1.147,1.156
		c0.631,0,1.147-0.521,1.147-1.156s-0.521-1.156-1.147-1.156C103.237,66.994,102.719,67.518,102.719,68.15L102.719,68.15z
		 M116.442,64.792c0-0.636-0.267-0.974-0.938-0.974h-2.832c-0.572,0-0.896,0.324-0.896,0.89c0,0.705,0.547,0.888,1.037,0.888h1.501
		c-0.111,1.243-1.18,2.076-2.398,2.076c-1.879,0-2.858-1.384-2.858-3.387c0-2.569,1.247-3.614,2.832-3.614
		c2.243,0,1.821,1.597,2.958,1.597c0.49,0,1.078-0.213,1.078-1.018c0-0.902-1.357-2.439-3.91-2.439
		c-3.126,0-5.258,1.892-5.258,5.319c0,2.851,1.359,5.317,4.922,5.317c1.431,0,2.342-0.535,3-1.366
		c0.141,0.901,0.32,1.312,0.979,1.312c0.463,0,0.785-0.354,0.785-0.775L116.442,64.792L116.442,64.792z M125.048,63.762
		c0-1.48-1.357-2.115-3.32-2.115c-2.104,0-3.253,1.043-3.253,1.861c0,0.426,0.353,0.792,0.868,0.792c0.814,0,0.854-1.13,2.371-1.13
		c0.687,0,1.289,0.254,1.289,0.848c0,0.592-0.394,0.705-0.883,0.762l-1.248,0.143c-1.572,0.186-2.859,0.662-2.859,2.371
		c0,1.298,1.148,2.104,2.313,2.104c1.079,0,2.006-0.313,2.805-1.199c0.029,0.634,0.322,1.199,1.205,1.199
		c0.49,0,0.927-0.326,0.927-0.791c0-0.324-0.212-0.521-0.212-1.383v-3.459h-0.002V63.762z M123.003,66.542
		c0,0.763-0.688,1.497-1.812,1.497c-0.698,0-1.136-0.381-1.136-0.848c0-0.621,0.463-0.892,1.316-1.019l0.744-0.11
		c0.238-0.043,0.659-0.113,0.885-0.326v0.806H123.003z M126.929,68.361c0,0.678,0.406,1.031,1.021,1.031s1.022-0.354,1.022-1.031
		v-8.465c0-0.678-0.407-1.03-1.022-1.03s-1.021,0.354-1.021,1.03V68.361L126.929,68.361z M130.828,68.361
		c0,0.678,0.405,1.031,1.021,1.031c0.617,0,1.021-0.354,1.021-1.031v-8.465c0-0.678-0.404-1.03-1.021-1.03
		c-0.616,0-1.021,0.354-1.021,1.03V68.361L130.828,68.361z M140.976,65.906c0.688,0,0.896-0.184,0.896-0.889
		c0-1.693-1.347-3.373-3.701-3.373c-2.426,0-3.868,1.607-3.868,4.008c0,1.793,1.077,3.74,3.938,3.74c1.233,0,3.209-0.58,3.209-1.82
		c0-0.381-0.351-0.805-0.841-0.805c-0.825,0-0.825,1.018-2.368,1.018c-1.193,0-1.895-0.791-1.895-1.879H140.976L140.976,65.906z
		 M136.349,64.723c0.225-1.002,0.842-1.638,1.863-1.638c0.912,0,1.613,0.69,1.727,1.638H136.349L136.349,64.723z M143.192,68.361
		c0,0.551,0.224,1.031,1.021,1.031c0.801,0,1.024-0.48,1.024-1.031v-3.4c0-1.029,0.841-1.622,1.556-1.622
		c0.886,0,1.291,0.593,1.291,1.425v3.598c0,0.553,0.226,1.031,1.022,1.031s1.022-0.479,1.022-1.031v-4.006
		c0-2.088-1.344-2.709-2.578-2.709c-1.165,0-1.908,0.537-2.481,1.297h-0.028v-0.268c0-0.619-0.281-1.029-0.926-1.029
		s-0.924,0.41-0.924,1.029L143.192,68.361L143.192,68.361z"/>
	<path fill="#7FC466" d="M87.957,53.158c0,0.748,0.419,1.115,1.106,1.115c0.686,0,1.106-0.367,1.106-1.115v-5.854h0.028l3.998,6.348
		c0.294,0.467,0.533,0.621,1.261,0.621c0.967,0,1.359-0.521,1.359-1.438v-7.972c0-0.748-0.42-1.115-1.106-1.115
		c-0.687,0-1.106,0.367-1.106,1.115v6.023h-0.028l-4.026-6.531c-0.252-0.424-0.673-0.607-1.148-0.607
		c-0.981,0-1.443,0.396-1.443,1.354L87.957,53.158L87.957,53.158z M105.451,48.645c0-1.48-1.356-2.117-3.32-2.117
		c-2.104,0-3.252,1.043-3.252,1.863c0,0.424,0.351,0.791,0.872,0.791c0.812,0,0.854-1.131,2.369-1.131
		c0.688,0,1.291,0.254,1.291,0.848c0,0.592-0.395,0.705-0.886,0.764l-1.249,0.143c-1.57,0.184-2.858,0.66-2.858,2.369
		c0,1.299,1.148,2.104,2.312,2.104c1.081,0,2.006-0.313,2.808-1.199c0.026,0.634,0.32,1.199,1.203,1.199
		c0.49,0,0.926-0.325,0.926-0.789c0-0.325-0.211-0.522-0.211-1.385v-3.457h-0.004V48.645z M103.406,51.423
		c0,0.763-0.688,1.497-1.809,1.497c-0.702,0-1.137-0.381-1.137-0.848c0-0.621,0.463-0.891,1.316-1.018l0.743-0.111
		c0.237-0.043,0.66-0.113,0.884-0.325L103.406,51.423L103.406,51.423z M107.751,52.439c0,1.213,0.615,1.834,2.102,1.834
		c0.98,0,1.484-0.326,1.484-0.916c0-0.438-0.267-0.691-0.715-0.691h-0.293c-0.365,0-0.533-0.169-0.533-0.48v-4.121h0.617
		c0.604,0,0.924-0.184,0.924-0.676c0-0.494-0.32-0.678-0.924-0.678h-0.617v-1.256c0-0.678-0.405-1.03-1.021-1.03
		c-0.617,0-1.023,0.353-1.023,1.03v1.256h-0.35c-0.574,0-0.813,0.227-0.813,0.678c0,0.45,0.238,0.676,0.813,0.676h0.35V52.439
		L107.751,52.439z M119.343,47.559c0-0.552-0.225-1.031-1.021-1.031c-0.799,0-1.023,0.479-1.023,1.031v3.399
		c0,1.028-0.842,1.623-1.557,1.623c-0.884,0-1.289-0.595-1.289-1.425v-3.6c0-0.552-0.226-1.029-1.022-1.029
		c-0.8,0-1.021,0.479-1.021,1.029v4.008c0,2.088,1.344,2.709,2.576,2.709c1.165,0,1.907-0.537,2.48-1.299h0.029v0.27
		c0,0.619,0.279,1.029,0.924,1.029c0.646,0,0.926-0.41,0.926-1.029L119.343,47.559L119.343,47.559z M121.083,53.243
		c0,0.55,0.224,1.03,1.021,1.03s1.022-0.48,1.022-1.03v-2.399c0-1.705,0.447-2.285,1.274-2.285h0.364c0.505,0,1.01-0.269,1.01-1.029
		c0-0.576-0.477-1.002-1.121-1.002c-0.994,0-1.459,0.892-1.695,1.75h-0.027v-0.791c0-0.619-0.407-0.959-0.926-0.959
		c-0.52,0-0.926,0.34-0.926,0.959v5.758L121.083,53.243L121.083,53.243z M126.677,53.243c0,0.55,0.224,1.03,1.021,1.03
		c0.8,0,1.024-0.48,1.024-1.03v-3.429c0-0.961,0.701-1.596,1.486-1.596c0.799,0,1.121,0.594,1.121,1.325v3.696
		c0,0.551,0.226,1.029,1.021,1.029c0.799,0,1.021-0.479,1.021-1.029v-3.43c0-0.959,0.701-1.594,1.486-1.594
		c0.799,0,1.122,0.592,1.122,1.325v3.696c0,0.551,0.224,1.031,1.022,1.031c0.797,0,1.021-0.48,1.021-1.031V49.02
		c0-1.849-1.135-2.496-2.551-2.496c-1.107,0-1.837,0.494-2.412,1.297c-0.379-0.973-1.262-1.297-1.962-1.297
		c-1.037,0-1.937,0.479-2.47,1.297h-0.027v-0.268c0-0.621-0.361-1.029-0.966-1.029s-0.968,0.408-0.968,1.029v5.688h0.008V53.243z
		 M146.597,47.559c0-0.552-0.225-1.031-1.023-1.031c-0.798,0-1.021,0.479-1.021,1.031v3.399c0,1.028-0.843,1.623-1.558,1.623
		c-0.885,0-1.291-0.595-1.291-1.425v-3.6c0-0.552-0.224-1.029-1.021-1.029c-0.801,0-1.021,0.479-1.021,1.029v4.008
		c0,2.088,1.346,2.709,2.578,2.709c1.164,0,1.907-0.537,2.481-1.299h0.026v0.27c0,0.619,0.281,1.029,0.924,1.029
		c0.646,0,0.928-0.41,0.928-1.029L146.597,47.559L146.597,47.559z M147.903,48.826c0,1.383,0.925,1.878,2.114,2.175l1.206,0.296
		c0.729,0.184,1.18,0.268,1.18,0.79c0,0.425-0.464,0.748-1.192,0.748c-1.515,0-1.599-1.271-2.48-1.271
		c-0.573,0-0.825,0.408-0.825,0.859c0,1.018,1.541,1.85,3.392,1.85c1.543,0,3.152-0.775,3.152-2.455c0-1.438-1.386-1.934-2.55-2.202
		l-0.854-0.197c-0.631-0.142-1.096-0.254-1.096-0.733c0-0.438,0.465-0.635,1.18-0.635c1.291,0,1.317,0.944,2.117,0.944
		c0.531,0,0.854-0.423,0.854-0.901c0-0.945-1.569-1.566-3.126-1.566C149.555,46.527,147.903,47.148,147.903,48.826L147.903,48.826z
		 M162.117,50.788c0.688,0,0.896-0.185,0.896-0.888c0-1.695-1.346-3.373-3.7-3.373c-2.426,0-3.869,1.605-3.869,4.007
		c0,1.792,1.079,3.739,3.938,3.739c1.234,0,3.211-0.58,3.211-1.82c0-0.381-0.352-0.805-0.842-0.805
		c-0.826,0-0.826,1.018-2.369,1.018c-1.191,0-1.896-0.79-1.896-1.878H162.117L162.117,50.788z M157.489,49.604
		c0.226-1.002,0.843-1.638,1.866-1.638c0.912,0,1.613,0.69,1.727,1.638H157.489L157.489,49.604z M171.27,47.559
		c0-0.552-0.226-1.031-1.022-1.031c-0.795,0-1.021,0.479-1.021,1.031v3.399c0,1.028-0.842,1.623-1.56,1.623
		c-0.883,0-1.291-0.595-1.291-1.425v-3.6c0-0.552-0.224-1.029-1.021-1.029s-1.022,0.479-1.022,1.029v4.008
		c0,2.088,1.347,2.709,2.578,2.709c1.164,0,1.908-0.537,2.483-1.299h0.026v0.27c0,0.619,0.281,1.029,0.925,1.029
		c0.646,0,0.925-0.41,0.925-1.029L171.27,47.559L171.27,47.559z M172.899,53.243c0,0.55,0.224,1.03,1.021,1.03
		s1.022-0.48,1.022-1.03v-3.429c0-0.961,0.702-1.596,1.487-1.596c0.8,0,1.121,0.594,1.121,1.325v3.696
		c0,0.551,0.226,1.029,1.022,1.029c0.8,0,1.021-0.479,1.021-1.029v-3.43c0-0.959,0.7-1.594,1.485-1.594
		c0.801,0,1.123,0.592,1.123,1.325v3.696c0,0.551,0.226,1.031,1.021,1.031s1.023-0.48,1.023-1.031V49.02
		c0-1.849-1.137-2.496-2.552-2.496c-1.108,0-1.839,0.494-2.411,1.297c-0.38-0.973-1.263-1.297-1.962-1.297
		c-1.038,0-1.938,0.479-2.471,1.297h-0.026v-0.268c0-0.621-0.363-1.029-0.968-1.029s-0.966,0.408-0.966,1.029v5.688h0.007V53.243z"
		/>
</g>
</svg>
