<?xml version="1.0" encoding="utf-8"?>
<!-- Generator: Adobe Illustrator 16.0.0, SVG Export Plug-In . SVG Version: 6.00 Build 0)  -->
<!DOCTYPE svg PUBLIC "-//W3C//DTD SVG 1.1//EN" "http://www.w3.org/Graphics/SVG/1.1/DTD/svg11.dtd">
<svg version="1.1" id="print" xmlns="http://www.w3.org/2000/svg" xmlns:xlink="http://www.w3.org/1999/xlink" x="0px" y="0px"
	 width="198.425px" height="85.039px" viewBox="0 0 198.425 85.039" enable-background="new 0 0 198.425 85.039"
	 xml:space="preserve">
<g>
	<path fill="#7FC466" d="M71.239,14.349c-4.209-0.025-6.99,1.791-9.193,4.76c-1.416-3.619-4.764-4.843-7.428-4.858
		c-3.941-0.023-7.362,1.734-9.404,4.757h-0.107l0.006-0.994c0.014-2.302-1.362-3.828-3.653-3.841
		c-2.29-0.014-3.684,1.496-3.699,3.797l-0.214,39.564h-0.098l-13.986-22.46c-0.876-1.456-2.349-2.092-4.022-2.103
		c-3.445-0.021-5.077,1.322-5.098,4.609L14.173,65.18c-0.015,2.56,1.453,3.826,3.865,3.84c2.411,0.013,3.895-1.232,3.911-3.795
		l0.123-20.059l0.098,0.001l13.891,21.831c1.023,1.602,1.858,2.14,4.416,2.153c3.396,0.02,4.785-1.76,4.804-4.902l0.207-37.86
		c0.022-3.56,2.7-5.896,5.684-5.879c3.037,0.017,4.248,2.223,4.23,4.943l-0.084,13.708c-0.012,2.041,0.829,3.824,3.868,3.843
		c3.035,0.018,3.899-1.756,3.912-3.796l0.078-12.714c0.021-3.558,2.7-5.897,5.683-5.879c3.037,0.017,4.25,2.224,4.231,4.942
		l-0.083,13.709c-0.013,2.04,0.829,3.825,3.866,3.842c3.037,0.018,3.9-1.756,3.913-3.797l0.095-15.643
		C80.921,16.814,76.62,14.381,71.239,14.349L71.239,14.349z"/>
	<path fill="#7FC466" d="M91.362,62.887c-0.73-0.169-1.571-0.395-1.571-1.101c0-0.705,0.589-1.199,1.655-1.199
		c2.146,0,1.949,1.51,3.014,1.51c0.561,0,1.05-0.339,1.05-0.917c0-1.354-2.115-2.37-3.911-2.37c-1.949,0-4.022,0.847-4.022,3.104
		c0,1.087,0.377,2.244,2.465,2.781l2.594,0.663c0.786,0.197,0.982,0.648,0.982,1.059c0,0.677-0.66,1.34-1.852,1.34
		c-2.328,0-2.006-1.834-3.252-1.834c-0.561,0-0.966,0.396-0.966,0.959c0,1.101,1.303,2.567,4.219,2.567
		c2.776,0,4.148-1.367,4.148-3.202c0-1.185-0.532-2.44-2.633-2.922L91.362,62.887L91.362,62.887z M97.882,67.559
		c0,1.213,0.616,1.834,2.101,1.834c0.982,0,1.486-0.325,1.486-0.917c0-0.437-0.267-0.69-0.715-0.69h-0.294
		c-0.365,0-0.533-0.17-0.533-0.48v-4.121h0.617c0.603,0,0.925-0.184,0.925-0.677c0-0.494-0.322-0.677-0.925-0.677h-0.617v-1.256
		c0-0.678-0.407-1.031-1.023-1.031c-0.617,0-1.022,0.354-1.022,1.031v1.256h-0.351c-0.575,0-0.813,0.226-0.813,0.677
		s0.238,0.677,0.813,0.677h0.351V67.559L97.882,67.559z M102.719,68.151c0,0.634,0.518,1.156,1.148,1.156
		c0.63,0,1.148-0.522,1.148-1.156c0-0.635-0.519-1.157-1.148-1.157C103.237,66.994,102.719,67.517,102.719,68.151L102.719,68.151z
		 M116.442,64.792c0-0.635-0.267-0.973-0.938-0.973h-2.832c-0.574,0-0.896,0.324-0.896,0.889c0,0.705,0.547,0.888,1.037,0.888h1.501
		c-0.112,1.243-1.179,2.076-2.398,2.076c-1.88,0-2.86-1.384-2.86-3.387c0-2.569,1.247-3.614,2.832-3.614
		c2.244,0,1.823,1.596,2.958,1.596c0.491,0,1.079-0.212,1.079-1.017c0-0.903-1.358-2.44-3.911-2.44c-3.126,0-5.256,1.891-5.256,5.32
		c0,2.85,1.359,5.318,4.92,5.318c1.431,0,2.342-0.536,3-1.367c0.141,0.901,0.322,1.312,0.98,1.312c0.463,0,0.785-0.354,0.785-0.777
		V64.792L116.442,64.792z M125.049,63.762c0-1.481-1.358-2.116-3.321-2.116c-2.104,0-3.253,1.044-3.253,1.862
		c0,0.425,0.352,0.792,0.868,0.792c0.814,0,0.856-1.13,2.371-1.13c0.687,0,1.29,0.254,1.29,0.847s-0.393,0.706-0.884,0.762
		l-1.248,0.142c-1.571,0.184-2.859,0.662-2.859,2.371c0,1.298,1.148,2.102,2.313,2.102c1.079,0,2.006-0.312,2.805-1.199
		c0.028,0.634,0.322,1.199,1.204,1.199c0.491,0,0.926-0.325,0.926-0.79c0-0.324-0.211-0.521-0.211-1.383V63.762L125.049,63.762z
		 M123.004,66.542c0,0.763-0.688,1.497-1.811,1.497c-0.7,0-1.136-0.381-1.136-0.848c0-0.621,0.463-0.89,1.318-1.017l0.744-0.112
		c0.238-0.043,0.659-0.113,0.884-0.325V66.542L123.004,66.542z M126.929,68.361c0,0.678,0.407,1.031,1.022,1.031
		c0.616,0,1.023-0.354,1.023-1.031v-8.465c0-0.677-0.407-1.03-1.023-1.03c-0.615,0-1.022,0.354-1.022,1.03V68.361L126.929,68.361z
		 M130.827,68.361c0,0.678,0.406,1.031,1.022,1.031c0.617,0,1.022-0.354,1.022-1.031v-8.465c0-0.677-0.405-1.03-1.022-1.03
		c-0.616,0-1.022,0.354-1.022,1.03V68.361L130.827,68.361z M140.976,65.907c0.687,0,0.896-0.185,0.896-0.889
		c0-1.694-1.345-3.373-3.701-3.373c-2.426,0-3.868,1.608-3.868,4.008c0,1.792,1.078,3.739,3.938,3.739c1.235,0,3.21-0.579,3.21-1.82
		c0-0.381-0.35-0.804-0.84-0.804c-0.827,0-0.827,1.017-2.37,1.017c-1.192,0-1.893-0.791-1.893-1.878H140.976L140.976,65.907z
		 M136.349,64.723c0.225-1.003,0.842-1.638,1.864-1.638c0.912,0,1.613,0.69,1.726,1.638H136.349L136.349,64.723z M143.192,68.361
		c0,0.551,0.224,1.031,1.021,1.031c0.799,0,1.024-0.48,1.024-1.031v-3.4c0-1.029,0.841-1.622,1.556-1.622
		c0.884,0,1.291,0.593,1.291,1.425v3.598c0,0.551,0.224,1.031,1.022,1.031s1.023-0.48,1.023-1.031v-4.007
		c0-2.088-1.345-2.709-2.579-2.709c-1.165,0-1.908,0.537-2.481,1.298h-0.028v-0.268c0-0.62-0.281-1.03-0.926-1.03
		s-0.924,0.41-0.924,1.03V68.361L143.192,68.361z"/>
	<path fill="#7FC466" d="M87.957,53.158c0,0.748,0.419,1.115,1.106,1.115c0.686,0,1.106-0.367,1.106-1.115v-5.854h0.028l3.998,6.349
		c0.294,0.466,0.533,0.621,1.261,0.621c0.967,0,1.359-0.522,1.359-1.439v-7.972c0-0.748-0.42-1.115-1.106-1.115
		c-0.687,0-1.106,0.367-1.106,1.115v6.024h-0.028l-4.026-6.532c-0.252-0.423-0.673-0.607-1.148-0.607
		c-0.981,0-1.443,0.396-1.443,1.354V53.158L87.957,53.158z M105.451,48.644c0-1.481-1.358-2.116-3.321-2.116
		c-2.104,0-3.253,1.043-3.253,1.862c0,0.424,0.351,0.791,0.87,0.791c0.812,0,0.854-1.13,2.369-1.13c0.688,0,1.291,0.254,1.291,0.848
		c0,0.592-0.393,0.705-0.884,0.762l-1.249,0.141c-1.57,0.184-2.858,0.662-2.858,2.371c0,1.298,1.148,2.102,2.312,2.102
		c1.081,0,2.006-0.312,2.806-1.199c0.028,0.634,0.322,1.199,1.205,1.199c0.49,0,0.924-0.325,0.924-0.789
		c0-0.325-0.21-0.522-0.21-1.384V48.644L105.451,48.644z M103.406,51.423c0,0.763-0.688,1.497-1.809,1.497
		c-0.702,0-1.137-0.381-1.137-0.848c0-0.621,0.463-0.89,1.318-1.017l0.743-0.112c0.238-0.042,0.66-0.113,0.884-0.325V51.423
		L103.406,51.423z M107.751,52.439c0,1.213,0.616,1.834,2.102,1.834c0.981,0,1.485-0.325,1.485-0.916
		c0-0.438-0.266-0.691-0.715-0.691h-0.294c-0.365,0-0.533-0.169-0.533-0.48v-4.121h0.617c0.604,0,0.925-0.184,0.925-0.677
		c0-0.494-0.321-0.677-0.925-0.677h-0.617v-1.256c0-0.678-0.405-1.03-1.021-1.03c-0.617,0-1.023,0.353-1.023,1.03v1.256h-0.35
		c-0.575,0-0.813,0.226-0.813,0.677s0.238,0.677,0.813,0.677h0.35V52.439L107.751,52.439z M119.343,47.558
		c0-0.551-0.224-1.03-1.021-1.03c-0.799,0-1.023,0.479-1.023,1.03v3.4c0,1.029-0.842,1.623-1.557,1.623
		c-0.884,0-1.29-0.594-1.29-1.425v-3.599c0-0.551-0.225-1.03-1.023-1.03s-1.022,0.479-1.022,1.03v4.007
		c0,2.088,1.345,2.709,2.578,2.709c1.165,0,1.907-0.536,2.482-1.298h0.028v0.269c0,0.62,0.28,1.029,0.925,1.029
		c0.644,0,0.924-0.409,0.924-1.029V47.558L119.343,47.558z M121.083,53.243c0,0.55,0.224,1.03,1.022,1.03s1.023-0.48,1.023-1.03
		v-2.399c0-1.706,0.448-2.285,1.275-2.285h0.364c0.505,0,1.01-0.269,1.01-1.029c0-0.578-0.477-1.002-1.121-1.002
		c-0.995,0-1.459,0.89-1.696,1.749h-0.028v-0.79c0-0.621-0.407-0.959-0.925-0.959c-0.519,0-0.925,0.338-0.925,0.959V53.243
		L121.083,53.243z M126.677,53.243c0,0.55,0.224,1.03,1.021,1.03c0.8,0,1.024-0.48,1.024-1.03v-3.429
		c0-0.96,0.701-1.595,1.487-1.595c0.799,0,1.12,0.593,1.12,1.326v3.697c0,0.55,0.226,1.03,1.023,1.03c0.799,0,1.022-0.48,1.022-1.03
		v-3.429c0-0.96,0.701-1.595,1.487-1.595c0.799,0,1.122,0.593,1.122,1.326v3.697c0,0.55,0.224,1.03,1.022,1.03
		s1.023-0.48,1.023-1.03v-4.219c0-1.848-1.135-2.497-2.551-2.497c-1.108,0-1.837,0.494-2.412,1.297
		c-0.379-0.973-1.261-1.297-1.962-1.297c-1.037,0-1.936,0.479-2.468,1.297h-0.029v-0.268c0-0.62-0.363-1.029-0.966-1.029
		s-0.967,0.409-0.967,1.029V53.243L126.677,53.243z M146.597,47.558c0-0.551-0.225-1.03-1.023-1.03c-0.798,0-1.022,0.479-1.022,1.03
		v3.4c0,1.029-0.841,1.623-1.557,1.623c-0.884,0-1.29-0.594-1.29-1.425v-3.599c0-0.551-0.224-1.03-1.023-1.03
		c-0.799,0-1.022,0.479-1.022,1.03v4.007c0,2.088,1.345,2.709,2.579,2.709c1.164,0,1.907-0.536,2.481-1.298h0.028v0.269
		c0,0.62,0.281,1.029,0.924,1.029c0.646,0,0.926-0.409,0.926-1.029V47.558L146.597,47.558z M147.903,48.826
		c0,1.383,0.924,1.878,2.114,2.175l1.206,0.296c0.73,0.183,1.18,0.268,1.18,0.79c0,0.424-0.464,0.748-1.193,0.748
		c-1.514,0-1.598-1.271-2.481-1.271c-0.573,0-0.825,0.409-0.825,0.861c0,1.016,1.541,1.848,3.391,1.848
		c1.543,0,3.153-0.775,3.153-2.455c0-1.438-1.386-1.934-2.55-2.202l-0.855-0.197c-0.631-0.141-1.095-0.254-1.095-0.733
		c0-0.438,0.464-0.635,1.179-0.635c1.291,0,1.318,0.944,2.117,0.944c0.532,0,0.854-0.423,0.854-0.902
		c0-0.944-1.569-1.565-3.126-1.565C149.555,46.527,147.903,47.148,147.903,48.826L147.903,48.826z M162.116,50.788
		c0.687,0,0.897-0.185,0.897-0.888c0-1.695-1.346-3.373-3.7-3.373c-2.426,0-3.869,1.607-3.869,4.007
		c0,1.792,1.079,3.739,3.939,3.739c1.233,0,3.21-0.579,3.21-1.82c0-0.381-0.351-0.804-0.841-0.804c-0.826,0-0.826,1.017-2.369,1.017
		c-1.192,0-1.895-0.79-1.895-1.878H162.116L162.116,50.788z M157.489,49.604c0.225-1.003,0.843-1.638,1.866-1.638
		c0.912,0,1.613,0.691,1.726,1.638H157.489L157.489,49.604z M171.27,47.558c0-0.551-0.225-1.03-1.022-1.03s-1.022,0.479-1.022,1.03
		v3.4c0,1.029-0.842,1.623-1.558,1.623c-0.884,0-1.291-0.594-1.291-1.425v-3.599c0-0.551-0.224-1.03-1.021-1.03
		s-1.022,0.479-1.022,1.03v4.007c0,2.088,1.345,2.709,2.578,2.709c1.164,0,1.908-0.536,2.483-1.298h0.027v0.269
		c0,0.62,0.28,1.029,0.924,1.029c0.645,0,0.925-0.409,0.925-1.029V47.558L171.27,47.558z M172.899,53.243
		c0,0.55,0.224,1.03,1.021,1.03s1.022-0.48,1.022-1.03v-3.429c0-0.96,0.702-1.595,1.487-1.595c0.8,0,1.122,0.593,1.122,1.326v3.697
		c0,0.55,0.225,1.03,1.023,1.03c0.798,0,1.021-0.48,1.021-1.03v-3.429c0-0.96,0.702-1.595,1.487-1.595
		c0.8,0,1.123,0.593,1.123,1.326v3.697c0,0.55,0.224,1.03,1.021,1.03s1.023-0.48,1.023-1.03v-4.219c0-1.848-1.135-2.497-2.55-2.497
		c-1.109,0-1.839,0.494-2.413,1.297c-0.378-0.973-1.261-1.297-1.961-1.297c-1.039,0-1.938,0.479-2.47,1.297h-0.028v-0.268
		c0-0.62-0.363-1.029-0.966-1.029s-0.966,0.409-0.966,1.029V53.243L172.899,53.243z"/>
</g>
</svg>
