<?xml version="1.0" encoding="utf-8"?>
<!-- Generator: Adobe Illustrator 16.0.0, SVG Export Plug-In . SVG Version: 6.00 Build 0)  -->
<!DOCTYPE svg PUBLIC "-//W3C//DTD SVG 1.1//EN" "http://www.w3.org/Graphics/SVG/1.1/DTD/svg11.dtd">
<svg version="1.1" id="Layer_1" xmlns="http://www.w3.org/2000/svg" xmlns:xlink="http://www.w3.org/1999/xlink" x="0px" y="0px"
	 width="436.752px" height="495.158px" viewBox="0 0 436.752 495.158" enable-background="new 0 0 436.752 495.158"
	 xml:space="preserve">
<path d="M211.102,90.054c0,0-19.043-3.422-9.228-15.066c9.814-11.645,17.948-16.511,19.48-18.079
	c1.533-1.567,9.591-6.328,10.768-6.529c1.175-0.2,3.705-3.962,4.613-4.017c0.91-0.056,3.094-4.698,6.152-5.022
	c3.059-0.325,19.995-13.56,19.995-13.56s3.736-2.023,5.126-2.009c1.391,0.014,5.585-4.48,7.177-5.524s6.633-7.329,10.767-9.542
	c4.134-2.214,10.112-3.853,13.843,0c3.729,3.854,3.958,10.747,1.538,13.561c-2.419,2.812-5.908,7.008-11.279,9.04
	c-5.37,2.031-13.458,3.579-14.354,3.516c-0.897-0.064-6.113,5.736-11.279,7.031c-5.166,1.294-8.752,4.104-10.253,5.021
	c-1.5,0.918-11.56,6.033-13.842,9.542c-2.283,3.507-4.43,5.161-7.178,6.529c-2.748,1.367-12.945,9.17-13.842,10.044
	c-0.896,0.874-2.954,1.842,0.513,4.521c3.468,2.679,30.826,14.778,32.3,15.567c1.472,0.79,11.277,6.529,11.277,6.529
	s6.07,3.746,10.254,1.004c4.185-2.741,5.193-2.05,6.665-2.008c1.472,0.041,3.442-2.796,8.715-1.506
	c5.274,1.289,9.585,2.515,12.305,3.515c2.72,1.001,9.946,6.148,2.051,6.027c-7.896-0.122-11.018-0.396-12.816,0
	c-1.798,0.395-5.259,0.083-1.024,3.014c4.233,2.93,8.265,5.497,9.741,8.537s1.806,4.007,2.563,5.523
	c0.758,1.518,2.468,3.443,3.589-1.005c1.122-4.446,0.478-6.534,2.051-9.04c1.574-2.506,3.514-3.929,5.641,2.01
	c2.127,5.938,1.944,9.104,2.563,12.555c0.619,3.451,0.931,5.281-4.102,10.045c-5.03,4.763-9.003,7.4-8.203,15.568
	c0.881,8.983,4.125,14.973,6.152,20.088c2.026,5.114,1.507,6.225,5.127,9.542c3.621,3.315,4.893,3.674,5.64,6.528
	c0.749,2.854-0.466,5.041,2.051,6.528c2.519,1.488,5.616,1.61,7.69,0s6.441-4.922,10.253-5.524s3.778,0.631,5.639-0.502
	c1.861-1.134,8.237-4.395,10.253-5.021c2.018-0.628,4.595-0.118,6.665-0.502c2.071-0.385,25.6-14.345,28.197-13.561
	c2.598,0.786,4.603,1.206,10.254-1.004c5.65-2.211,12.184-4.562,17.943-3.516c5.76,1.047,15.227,4.545,7.179,12.053
	c-5.636,5.255-10.863,6.411-11.28,6.027c-0.416-0.385-7.28,1.848-10.766,1.506s-6.804-2.8-9.229-1.506
	c-2.425,1.293-5.884,3.284-9.227,3.516c-3.343,0.23-9.068,2.138-11.279,1.506c-2.21-0.631-4.896,1.752-7.178,3.014
	c-2.279,1.261-3.643,0.849-7.177,1.506s-4.73,2.501-7.69,3.516c-2.959,1.014-2.201,0.737-6.665,1.004
	c-4.463,0.268-4.607,3.424-9.741,5.524c-5.132,2.1-12.956,11.872-20.507,4.017c-7.551-7.854-7.451-6.975-9.741-14.062
	c-2.288-7.086-3.22-13.731-5.127-20.088c-1.905-6.358-3.471-11.211-5.126-13.561c-1.654-2.349-4.215-7.48-7.177-1.506
	c-2.91,5.869-3.521,9.157-5.127,10.546c-1.604,1.39-8.333,4.957-10.766,6.529c-2.434,1.571-10.288,6.783-12.817,7.533
	c-2.528,0.75-6.252,1.443-10.253,0c-4.001-1.445-6.332-4.84-10.767-3.014c-4.435,1.827-4.5,1.681-5.127,6.529
	c-0.625,4.848,0.873,2.76-2.052,7.031c-2.922,4.271-5.995,4.397-3.075,6.529c2.92,2.13,4.525,0.883,8.202,1.507
	c3.678,0.624,4.343,0.268,9.74,2.511c5.399,2.242,7.765,2.623,14.355,3.013c6.592,0.391,7.636-1.794,11.792,2.01
	c4.155,3.803,2.673,4.865,5.127,6.527c2.454,1.663,5.004,1.699,5.639,4.521c0.636,2.82-0.676,5.849,3.076,6.528
	c3.752,0.681,4.072,0.369,6.152,2.01c2.079,1.64,3.063,0.901,4.613,3.014c1.55,2.11,1.451,4.133,0.513,6.027
	c-0.938,1.892-0.339,4.104-3.076,3.515c-2.737-0.591-4.588-2.827-5.641-3.515c-1.051-0.689-5.127-2.01-5.127-2.01
	s-3.815-4.552-4.613-4.52c-0.796,0.031-7.09-3.298-9.74-8.539c-2.651-5.24-12.253,0.622-13.843-0.502
	c-1.589-1.124-25.286-2.776-23.583,0.502s7.662,9.426,9.228,10.547c1.566,1.121,4.735,4.495,5.126,8.035
	c0.394,3.54,3.847,5,6.665,6.529c2.819,1.526,11.266,9.413,14.355,12.052c3.088,2.64,7.416,8.028,7.688,10.044
	c0.274,2.017,1.268,3.64,3.077,5.022c1.809,1.382,2.423,0.502,2.051,5.523c-0.373,5.021,0.464,7.554,3.076,10.546
	c2.612,2.993,14.022,17.622,15.893,19.083c1.871,1.461,5.456,2.404,5.64,7.031c0.185,4.626-0.402,6.152,1.538,8.035
	c1.94,1.882,1.191,4.463,0.512,6.529c-0.679,2.063,0.709,3.59-0.512,5.021c-1.222,1.431-5.521,3.445-6.665,0.502
	c-1.146-2.942-0.116-2.584-1.026-5.021c-0.909-2.438-2.474-1.854-3.076-4.019c-0.601-2.163-0.424-2.229-0.512-4.52
	c-0.089-2.289-2.844-2.334-4.102-5.021c-1.257-2.688-9.001-16.148-9.741-18.582c-0.739-2.433-6.253-12.942-9.229-13.56
	c-2.975-0.618-4.014-2.312-4.613-3.013c-0.601-0.703-8.077-4.226-9.741-6.529c-1.663-2.304-15.103-21.847-15.894-25.11
	c-0.792-3.264-4.415-4.215-8.204-7.031c-3.787-2.814-6.813-8.02-15.38-7.029c-8.566,0.987-8.715,1.506-8.715,1.506
	s2.063-0.206,0.514,6.025c-1.551,6.232,4.16,10.617,5.126,12.556c0.966,1.937,3.268,4.039,2.051,8.537
	c-1.216,4.5,0.81,12.559,2.563,18.08c1.753,5.521,7.039,20.706,7.69,22.6c0.651,1.893,1.589,10.198,0,14.563
	c-1.589,4.364,5.049,23.038,4.101,24.607c-0.946,1.568,2.591,1.084,3.589,12.555c0.999,11.471,3.589,14.563,3.589,14.563
	s7.401,31.671,8.202,33.648c0.803,1.977,1.25,7.096,1.025,8.537c-0.224,1.44,6.665,24.608,6.665,24.608l-1.026,9.541
	c0,0,4.917,13.899,5.127,15.569c0.209,1.669-4.666,5.479-5.127,6.024c-0.46,0.549-3.364,0.011-4.613-3.012
	c-1.249-3.023-3.688-3.903-3.59-10.045c0.102-6.143,0.223-10.383-1.024-16.07c-1.247-5.687-7.488-39.42-8.716-42.688
	c-1.228-3.269-16.328-61.599-15.894-63.278c0.437-1.681-1.523-14.676-4.102-19.083c-2.578-4.408-12.075-27.317-11.279-39.674
	c0.796-12.357-3.727-12.412-4.102-14.063c-0.374-1.651-2.661-6.06-4.614-7.533c-1.952-1.474-7.911-4.542-9.741-5.523
	c-1.83-0.984-3.256-4.416-5.639-5.022c-2.383-0.605-2.233,0.366-4.614,2.009c-2.38,1.644-2.66,2.189-4.101,3.015
	c-1.441,0.823-2.175,1.791,1.024,4.018c3.199,2.228,15.205,15.279,14.867,21.596c-0.337,6.313,2.767,15.17-1.025,26.617
	c-3.792,11.446-1.104,15.627-6.665,23.604c-5.559,7.976-6.297,4.643-11.792,12.053c-5.493,7.41-4.896,8.879-9.74,11.049
	c-4.846,2.171-1.501,2.527-6.664,6.026c-5.164,3.5-6.842,4.25-13.843,4.521c-7,0.27-10.876-0.949-14.868-4.019
	c-3.992-3.067-5.883-5.589-7.179-9.039c-1.293-3.451-5.682-6.886-7.177-9.04c-1.495-2.153-4.571-12.597-4.614-20.088
	c-0.044-7.492-3.021-9.163-4.102-16.071c-1.08-6.907,5.426-34.182,11.792-40.678c6.365-6.497,15.211-15.248,24.096-15.066
	c8.886,0.182,7.683-0.558,7.69-2.512c0.01-1.954,1.166-6.861,2.563-8.538c1.398-1.677,3.116-2.644,4.103-3.515
	c0.986-0.872,2.996-2.418-0.512-3.517c-3.509-1.098-7.908-3.345-10.255-10.546c-2.346-7.202-3.003-8.892-5.64-14.563
	c-2.635-5.673-5.147-10.522-9.228-3.517c-4.08,7.007-8.905,14.153-12.817,18.582s-10.082,6.896-11.279,7.533
	s-22.044,20.591-22.044,20.591s-29.063,11.837-29.734,13.56c-0.672,1.721-5.938-1.463-6.665,0
	c-0.728,1.463-23.164,13.237-25.121,14.062c-1.958,0.824-5.884,1.758-8.203,0c-2.319-1.757-4.171-2.222-4.103-5.021
	c0.069-2.8,3.087-4.505,7.178-5.524c4.092-1.02,10.697-1.982,15.893-4.018s10.001-3.308,13.33-6.026
	c3.329-2.721,1.202-3.712,6.152-5.021c4.951-1.313,16.225-2.999,19.481-6.027c3.257-3.029,10.799-5.731,14.868-9.542
	c4.068-3.813,11.655-7.647,13.329-12.053c1.675-4.407,6.625-7.871,11.792-13.56s14.394-16.661,15.38-18.079
	c0.986-1.42,0.53-4.176,8.203-1.507c7.672,2.669,16.711,3.498,21.019,12.053c4.311,8.556,5.625,11.42,6.152,12.054
	c0.528,0.632,5.159-3.967,6.665-5.022c1.506-1.057,4.101-9.542,4.101-9.542l-2.051-7.533c0,0-29.588-23.536-31.271-38.67
	c-1.686-15.134-11.202-13.051-16.919-17.577c-5.715-4.525-15.706-11.292-17.432-12.555c-1.725-1.263-5.777-11.171-7.178-13.058
	c-1.399-1.887-6.339-4.349-7.689-8.537c-1.352-4.19-1.438-8.402-6.665-12.556c-5.228-4.153-4.122-6.928-7.179-9.542
	c-3.056-2.613-6.687-4.192-7.177-7.532c-0.49-3.342-4.201-6.896-5.639-8.538c-1.439-1.644-1.489-2.004,0.512-4.019
	c2.002-2.013,5.003-3.277,6.665,0c1.661,3.278,3.426,9.454,5.639,10.044c2.214,0.592,2.741-1.045,5.641,3.516
	c2.898,4.561,2.583,7.998,5.639,8.538c3.058,0.54,5.396,1.244,6.665,5.021c1.268,3.778,3.159,3.315,5.639,7.031
	c2.48,3.716,10.064,17.37,11.279,17.577c1.214,0.208,4.736,1.005,6.665,6.025c1.929,5.022,11.792,12.556,11.792,12.556
	s13.241,9.74,15.38,12.556c1.899,2.496,6.345,8.326,7.37,9.152c1.063,0.857,27.901,34.952,26.979,29.016s-3.726-12.749-1.025-18.079
	c2.701-5.332,0.855-5.376,0-7.031c-0.856-1.655-2.207-11.065-4.102-12.555c-1.894-1.491,3.076-28.124,3.076-28.124
	s-3.318-7.504-2.563-12.053c0.756-4.549,0.842-11.773,2.051-15.066s-3.588-19.585-3.588-19.585s1.717-7.472-1.025-10.044
	c-2.742-2.571-4.247-2.142-4.614-8.035s-1.879-11.165,7.178-6.528c4.313,4.636,3.89,9.083,4.102,8.538
	c0.212-0.546,3.672,11.331,3.589,12.555s3.309,13.163,3.589,15.066c0.281,1.903,1.111,13.931,1.025,14.563s3.03,15.796,1.538,20.088
	s1.025,17.577,1.025,17.577s1.143,16.146,1.024,18.08c-0.117,1.933-0.41,5.159,0,7.03c0.41,1.872,1.91,3.239,5.64,5.524
	c3.73,2.283,5.842-2.935,10.254-4.52c4.413-1.586,6.505,0.081,9.74,1.506c3.237,1.426,4.102,1.507,4.102,1.507
	s3.448-7.095,5.639-5.522c2.192,1.57-5.6-14.331,2.051-21.094c7.652-6.762,8.038-6.154,9.229-9.04
	c1.189-2.884,6.065-10.609,9.229-12.555c3.162-1.945,6.158-3.481,7.69-4.52c1.533-1.04,2.667-1.577-2.051-4.019
	c-4.718-2.442-23.011-8.685-27.171-11.048C216.17,90.704,211.102,90.054,211.102,90.054z"/>
</svg>
