<?xml version="1.0" encoding="utf-8"?>
<!-- Generator: Adobe Illustrator 16.0.0, SVG Export Plug-In . SVG Version: 6.00 Build 0)  -->
<!DOCTYPE svg PUBLIC "-//W3C//DTD SVG 1.1//EN" "http://www.w3.org/Graphics/SVG/1.1/DTD/svg11.dtd">
<svg version="1.1" id="Layer_1" xmlns="http://www.w3.org/2000/svg" xmlns:xlink="http://www.w3.org/1999/xlink" x="0px" y="0px"
	 width="450px" height="310px" viewBox="0 0 450 310" enable-background="new 0 0 450 310" xml:space="preserve">
<path fill-rule="evenodd" clip-rule="evenodd" d="M136,34c22.6,0.8,20.6,2.4,31-5s21.2-13.4,34-14s21,0.4,35,7s18.4,8.6,33,8
	s4.2-2.2,37-4s23-5,52,2s27.8,2.6,43,18s29.6,32.4,36,56s2.8,22.2,2,26s-3,4.6-3,17s-6,18.2-5,28s-2.8,5.8-3,14s-3.2,8.6-3,14
	s-1,5.4,3,10s3.6,4.6,4,8s-0.2,2,7,9s8.4,7,7,15s-6,21.2-10,28s-4.2,8.6-18,9s-7.4,4.6-21,1s-6.2-4.6-3-9s1.4-1.4,8-7s3.2-6.4,1-9
	s-4.2-1.4-13-4s-2.6,1.4-7-4s-3.4-4.8-7-7s-5.6-3.4-5,0s0.8,3.2,2,5s1.2,1.6-1,2s-1.8-0.4-1,2s0.8,2.4,1,4s-0.6,0.2-2,2
	s-1.8,2.4,0,4s1.6,2.6,1,6s3,7.2-10,8s-44.8,3.8-55,1s-14.4-2.2-8-10s1.8-4.8,10-7s4.8,0,14-3s6.8-4,4-8s-4-3.8-5-6s-1-2-1-2
	s-1.265,1.322-1-3s-1.146,0.821-2,1s-0.764,1.863-2,0s-0.707-1.585-1-3s0.165-3.152-1-2s-0.268,0.678-1,1s-1.963,4.215-2,0
	s-0.602-4.054-1-3s-0.483,2.096-2,2s-1.859-1.764-2-3c-0.141-1.235,0.141-4.072,0-6s-1.945-0.953-3-3s-1.641-5.135-2-10
	s0.246-6.417,0-11s-0.876-5.897-3-3s-2-3-2-3l-3,4l-1-5l-6,3l-1-6h-2l-1,4l-3-4l-2,3l-3-7l-2,2l-2-3l-1,2l-3-2l-3,1
	c0,0-5.502,12.215-9,28s-5.311,14.23-5,16s-0.084,3.182,0,5s-1.448,2.227-4,5s-3.974,7.427-4,7s1.486,1.678-1,4s-3.926,6.237-4,11
	s0.074,7.993,0,11s2.762,7.136-10,7s-46.004,1.172-50,1s-6.73-2.383-8-4s-0.267-3.022-8-3s-12.329,1.112-18,0s-7.508-0.96-9-2
	s0.649-12.951,12-14s8.894-0.116,15-2s8.121-2.871,7-7s-4-5-4-5l-1-5l-3,1l1-7l2-4l-1-2l-3,2v-5c0,0,1.623-6.159,2-6s-2-2-2-2
	s1.154-6.688,1-7s-3-2-3-2l2-8l2-4l-1-2l-4,4l-1,1l2-9l1-14c0,0-12.831-8.997-14-10s-3.902-19.744-13-22s-8-4-8-4h-3l-1,2l-2-3l-3,3
	l-2-1l-2,1l-3-3l-3,3l-6-5c0,0-0.492,2.391-1,3s-16.494-9.38-22-10s-7,1-7,1l-1,2l-1-3l-2,1l-3,3l-1-1l-1-3l-2,1l-1,2l-3-1
	c0,0-1.956-8.007-14-9s-12.768-0.939-17-4s-7.284-4.046-4-5s5-3,5-3s-10.827-1.993-12-4s-1.308-2.193,1-4s1.704-2.28-1-4
	s-2.985-0.779-5-4s-1.597-4.256,5-7s21.253-9.615,23-11s3-2,3-2v-6c0,0,4.497-7.858,16-11s12.568-8.279,13-9s5.118-10.008,7-12
	s9.186-3.921,12-1s5.911,5.151,7,5s5,0,5,0s1.8-1.978,3-2s7.03-0.829,8,0s2.152,2.037,4,2s4.999-4.688,18-5S113.4,33.2,136,34z"/>
</svg>
