<?xml version="1.0" encoding="utf-8"?>
<!-- Generator: Adobe Illustrator 16.0.0, SVG Export Plug-In . SVG Version: 6.00 Build 0)  -->
<!DOCTYPE svg PUBLIC "-//W3C//DTD SVG 1.1//EN" "http://www.w3.org/Graphics/SVG/1.1/DTD/svg11.dtd">
<svg version="1.1" id="Layer_1" xmlns="http://www.w3.org/2000/svg" xmlns:xlink="http://www.w3.org/1999/xlink" x="0px" y="0px"
	 width="278.5px" height="320.5px" viewBox="-158 -222 278.5 320.5" enable-background="new -158 -222 278.5 320.5"
	 xml:space="preserve">
<g>
	<polygon points="-44.349,-129.335 -47.206,-166.472 -19.353,-204.325 -18.638,-190.042 -34.35,-167.187 -28.636,-100.055 
		-17.924,-79.344 4.93,-176.472 22.071,-191.47 -17.925,-216.467 -61.489,-175.758 -57.918,-149.333 	"/>
	<path d="M42.78,7.073l58.564-177.117l-37.138-49.279L6.356-176.472L-17.212-71.488l-39.993-73.56l-79.272-9.285l-12.144,56.421
		L-41.493,49.922l-17.14,24.997l22.854,5.713l5-4.285l2.854,9.998l12.141-12.854l20.713,0.714l9.999,9.999l3.571-6.428l11.426-3.571
		l14.283,24.997l-2.144-24.997l15.714-1.429l18.568,8.57l-2.857-9.283l7.143-1.43L42.78,7.073z M76.349-179.329l11.426,15.713
		l-20.711,63.562l-16.426,5.714L76.349-179.329z M-83.628-36.492l-52.137-66.419l5-27.854l59.277,88.56L-83.628-36.492z"/>
</g>
</svg>
