<?xml version="1.0" encoding="utf-8"?>
<!-- Generator: Adobe Illustrator 16.0.0, SVG Export Plug-In . SVG Version: 6.00 Build 0)  -->
<!DOCTYPE svg PUBLIC "-//W3C//DTD SVG 1.1//EN" "http://www.w3.org/Graphics/SVG/1.1/DTD/svg11.dtd">
<svg version="1.1" id="Layer_1" xmlns="http://www.w3.org/2000/svg" xmlns:xlink="http://www.w3.org/1999/xlink" x="0px" y="0px"
	 width="500px" height="500px" viewBox="0 0 500 500" enable-background="new 0 0 500 500" xml:space="preserve">
<g>
	<path d="M488.691,365.088c-0.532-8.515-3.992-31.666-6.253-41.777c-2.262-10.112-14.502-41.378-15.7-50.692
		c-1.198-9.313-7.85-26.344-15.434-35.79c-7.583-9.446-35.923-30.069-56.014-38.052s-47.1-12.772-68.254-14.502
		c-21.155-1.729-47.366,0.666-60.804-4.125c-13.438-4.79-4.391-5.588-22.352-8.781c-17.962-3.193-26.078,1.463-34.061-3.193
		s-8.116-10.245-13.97-12.64c-5.854-2.395-9.048-1.862-10.777-7.717c-1.729-5.854,0.932-4.523-5.322-5.721
		c-6.253-1.197-6.653,0.932-13.172-3.06c-6.52-3.991-7.584-1.064-9.313-7.583c-1.73-6.52-0.532-3.859,0-9.313
		c0.532-5.455-11.043-10.112-21.155-15.7c-10.111-5.588-11.442-11.442-28.206-25.013C91.139,67.855,82.89,64.263,73.576,61.203
		s-7.983,0.532-16.232-9.979C49.095,40.713,42.31,31.666,37.653,30.069s-6.918-0.666-6.519-1.064
		c0.399-0.399-5.588,2.794-7.185,9.712c-1.597,6.919-1.624,6.469-2.328,8.883c-0.704,2.413-0.604,4.156-0.637,4.659
		s-0.167,2.615-1.374,2.347c-1.207-0.269-0.637,1.81-0.369,1.24c0.268-0.57,2.078,3.352,1.24,1.575
		c-0.838-1.776,3.319,5.598,2.816,13.073c-0.503,7.475-2.749,6.302-3.051,6.335c-0.302,0.034-3.352,0.235-3.352,0.101
		c0-0.134,0-2.011,0-2.011l-1.709,0.067c0,0-2.849,4.257-3.553,5.128s-2.179,2.179-2.179,3.788s5.028,11.028,6.704,14.582
		c1.676,3.553,12.269,12.805,14.347,15.386c2.079,2.581,6.302,14.548,5.632,29.8c-0.587,13.351,1.626,14.45,1.939,14.494
		c0.002-0.003,0.001-0.014,0.005-0.013c0.046,0.004,0.04,0.02-0.005,0.013c-0.222,0.267,6.247,14.549,6.876,15.876
		c0.637,1.341,6.332,7.3,6.332,7.3s7.736,28.107,12.377,31.717c4.642,3.61,9.025,7.994,9.025,12.636s1.289,4.384,4.642,9.283
		c3.352,4.899,2.836,9.541,6.446,10.314c3.61,0.773,0.153,15.655,8.203,23.455s7.675,18.22,8.174,17.284
		c0.499-0.936,6.177,15.85,12.23,22.089s23.462,25.022,30.7,31.636s13.541,32.447,15.725,34.631
		c2.184,2.184,11.356,35.255,11.668,37.065s3.869,23.649,3.557,25.271c-0.312,1.622,4.93,13.915-12.604,22.463
		c-11.6,5.656-8.153,11.908-5.955,14.501c3.154,0.996,18.726,7.4,34.034,4.468c19.219-3.682,24.897-14.539,26.332-17.284
		c1.435-2.746-3.432-82.616,0.811-87.92c0,0,3.607-18.727,5.41-28.089c19.808,0,34.364-2.794,53.353-2.794
		c13.126-4.036,26.256-8.072,39.382-12.107c0.311,0.044,0.621,0.088,0.932,0.133c0,13.22,44.172,54.188,44.172,61.203
		c0.177,0.133,0.355,0.266,0.532,0.399c3.725,5.986,12.536,13.62,16.261,19.606c1.122,16.506-10.932,33.622-10.932,38.708
		c-10.882,0-24.496,14.186-23.866,18.391c-2.902,2.679,31.152,2.828,45.165,2.828c7.75,13.405,14.25,3.652,34.841,7.748
		c3.917,0.779,6.786-3.193,8.648-7.185c1.862-3.992,4.523-8.382,7.583-11.176c3.06-2.794,6.253-5.588,7.451-10.112
		c1.198-4.523,0.666-7.583,1.597-11.043c0.932-3.459,1.064-5.987,3.726-4.523c2.661,1.463,8.515,4.79,10.245,10.644
		c1.73,5.854,9.58,6.919,11.31,7.717c1.729,0.798,9.712-2.927,13.704-18.361c3.992-15.434,6.121-34.859,5.987-45.769
		C492.017,378.26,489.223,373.603,488.691,365.088z M427.776,430.12c-1.305,7.472-6.295,7.141-3.782,14.679
		c2.192,6.575-14.735,14.965-19.732,17.277c-7.946,3.676-11.271-1.57-11.271-6.077c0-4.507,0.374-7.788,7.371-16.682
		c6.997-8.895,4.384-15.035,5.451-27.961c1.067-12.927-0.12-7.246,0.355-13.65c0.474-6.404-2.902-18.443,10.629-5.39
		c5.553,5.356,7.234,7.472,9.013,12.215C427.589,409.274,429.081,422.648,427.776,430.12z M446.75,369.426
		c-2.728-3.676-5.574-8.301-9.132-15.299c-3.558-6.997-2.728-10.318,0.83-17.908c3.558-7.59,0.83-1.067,5.456-6.404
		c4.625-5.337,2.49-3.676,3.321,1.897c0.83,5.574,1.186,1.423,3.914,9.725c2.728,8.302,0.711,15.417,1.66,23.956
		C453.748,373.933,449.478,373.103,446.75,369.426z"/>
</g>
</svg>
