<?xml version="1.0" encoding="utf-8"?>
<!-- Generator: Adobe Illustrator 19.1.0, SVG Export Plug-In . SVG Version: 6.00 Build 0)  -->
<svg version="1.1" id="Layer_1" xmlns="http://www.w3.org/2000/svg" xmlns:xlink="http://www.w3.org/1999/xlink" x="0px" y="0px"
	 viewBox="-486.2999878 749.8900146 89.0999908 89.0999756"
	 style="enable-background:new -486.2999878 749.8900146 89.0999908 89.0999756;" xml:space="preserve">
<style type="text/css">
	.st0{fill:#96979D;}
	.st1{fill:#97989E;}
	.st2{display:none;}
	.st3{display:inline;}
	.st4{display:inline;fill:#FFFFFF;}
	.st5{font-family:'ChronicaPro-Medium';}
	.st6{font-size:22px;}
	.st7{display:inline;fill:#57ADBF;}
	.st8{font-size:24px;}
</style>
<g id="Warstwa_1">
	<g>
		<g>
			<path class="st0" d="M-435.8999634,780.4899902c0,2.2000122-1.8000183,4-4,4c-2.2000122,0-4-1.7999878-4-4
				s1.7999878-4.2999878,4-4.2999878C-437.7999878,776.1899414-435.8999634,778.289978-435.8999634,780.4899902z"/>
			<circle class="st0" cx="-432.5" cy="805.9899902" r="6.2999878"/>
			<circle class="st0" cx="-452.1999817" cy="793.1899414" r="5.3999939"/>
			<path class="st0" d="M-443.8999634,780.0899658c0,0-0.6000366,3.2999878-2.6000366,4.9000244
				c-0.0999756,0.0999756-0.2999878,0.1999512-0.5,0.2999268c-2.0999756,1.4000244-7.2999878,2.9000244-7.2999878,2.9000244
				l7.5,4.4000244c0,0-0.2999878-3,2.1000061-5.8000488c1.5-1.7999268,5.8000183-2.3999634,5.8000183-2.3999634
				L-443.8999634,780.0899658z"/>
			<path class="st0" d="M-446.7999878,793.1899414c0,0,0.1000061,3.2000732,3.8999939,5
				c4.6000061,2.2000732,9.1000061,1.7000732,9.1000061,1.7000732L-438.5,807.6899414c0,0-1.3999634-4.3999634-5.3999634-6.7999268
				c-1.7000122-1-9.1000366-2.4000244-9.1000366-2.4000244L-446.7999878,793.1899414z"/>
		</g>
		<path class="st1" d="M-416.5999756,838.9899902h-50.3000183c-10.6999817,0-19.3999939-8.7000122-19.3999939-19.4000244
			v-50.2999268c0-10.7000732,8.7000122-19.4000244,19.3999939-19.4000244h50.3000183
			c10.6999817,0,19.3999634,8.7000122,19.3999634,19.4000244v50.2999268
			C-397.1999817,830.289978-405.8999634,838.9899902-416.5999756,838.9899902z M-466.8999634,752.8900146
			c-9,0-16.4000244,7.3999634-16.4000244,16.3999634v50.2999878c0,9,7.4000244,16.4000244,16.4000244,16.4000244h50.2999878
			c9,0,16.3999939-7.4000244,16.3999939-16.4000244V769.289978c0-9-7.3999939-16.3999634-16.3999939-16.3999634H-466.8999634z"/>
		<path class="st1" d="M-421.3999634,831.1899414h-40.7000122c-9,0-16.2999878-7.2999268-16.2999878-16.2999268v-40.8000488
			c0-9,7.2999878-16.2999268,16.2999878-16.2999268h40.7999878c9,0,16.3000183,7.2999268,16.3000183,16.2999268v40.8000488
			C-405,823.8900146-412.3999634,831.1899414-421.3999634,831.1899414z M-462.0999756,759.3900146
			c-8.1000366,0-14.7000122,6.5999756-14.7000122,14.6999512v40.8000488c0,8.0999756,6.6000061,14.6999512,14.7000122,14.6999512
			h40.6999817c8.1999817,0,14.8000183-6.5999756,14.8000183-14.6999512v-40.8000488
			c0-8.0999756-6.6000366-14.6999512-14.7000122-14.6999512H-462.0999756z"/>
	</g>
</g>
<g id="Layer_3" class="st2">
	<path class="st3" d="M-460.0999756,842.6899414H-486.5c-2,0-3.5-1.5999756-3.5-3.5V812.789978c0-2,1.6000366-3.5,3.5-3.5
		h26.4000244c2,0,3.5,1.6000366,3.5,3.5v26.3999634C-456.5,841.0899658-458.0999756,842.6899414-460.0999756,842.6899414z"/>
	<text transform="matrix(1 0 0 1 -480.5437622 833.7128906)" class="st4 st5 st6">E</text>
</g>
<g id="Layer_2" class="st2">
	<path class="st7" d="M-460.0999756,842.6899414H-486.5c-2,0-3.5-1.5999756-3.5-3.5V812.789978c0-2,1.6000366-3.5,3.5-3.5
		h26.4000244c2,0,3.5,1.6000366,3.5,3.5v26.3999634C-456.5,841.0899658-458.0999756,842.6899414-460.0999756,842.6899414z"/>
	<text transform="matrix(1 0 0 1 -476.5434875 833.7128906)" class="st4 st5 st6">i</text>
</g>
<g id="Layer_2_copy" class="st2">
	<path class="st7" d="M-452.7999878,842.6899414H-486.5c-2,0-3.5-1.5999756-3.5-3.5V812.789978c0-2,1.6000366-3.5,3.5-3.5
		h33.7000122c2,0,3.5,1.6000366,3.5,3.5v26.3999634C-449.1999817,841.0899658-450.7999878,842.6899414-452.7999878,842.6899414z"/>
	<text transform="matrix(1 0 0 1 -463.5643921 833.7130127)" class="st4 st5 st8">i</text>
	<rect x="-483.1999817" y="823.4899902" class="st4" width="7.1999969" height="4.8999939"/>
	<polygon class="st4" points="-476.7999878,832.9899902 -476.7999878,818.9899902 -469.8999634,825.9899902 	"/>
</g>
<g id="Layer_2_copy_2" class="st2">
	<path class="st3" d="M-452.7999878,842.6899414H-486.5c-2,0-3.5-1.5999756-3.5-3.5V812.789978c0-2,1.6000366-3.5,3.5-3.5
		h33.7000122c2,0,3.5,1.6000366,3.5,3.5v26.3999634C-449.1999817,841.0899658-450.7999878,842.6899414-452.7999878,842.6899414z"/>
	<text transform="matrix(1 0 0 1 -466.5643921 833.7130127)" class="st4 st5 st6">E</text>
	<rect x="-483.1999817" y="823.4899902" class="st4" width="7.1999969" height="4.8999939"/>
	<polygon class="st4" points="-476.7999878,832.9899902 -476.7999878,818.9899902 -469.8999634,825.9899902 	"/>
</g>
</svg>
