<?xml version="1.0" encoding="utf-8"?>
<!-- Generator: Adobe Illustrator 16.0.0, SVG Export Plug-In . SVG Version: 6.00 Build 0)  -->
<!DOCTYPE svg PUBLIC "-//W3C//DTD SVG 1.1//EN" "http://www.w3.org/Graphics/SVG/1.1/DTD/svg11.dtd">
<svg version="1.1" id="Layer_1" xmlns="http://www.w3.org/2000/svg" xmlns:xlink="http://www.w3.org/1999/xlink" x="0px" y="0px"
	 width="488.525px" height="251.513px" viewBox="0 0 488.525 251.513" enable-background="new 0 0 488.525 251.513"
	 xml:space="preserve">
<path fill-rule="evenodd" clip-rule="evenodd" d="M148.008,25.501c16.53-8.596,68.023-39.982,121.506,5.5
	c34.798,29.592,38.471,53.062,45.502,65.503c3.277,5.798,5.458,20.324,8,23.001s18.4,30.706,19.501,35.502s7.965,7.109,12.5,8
	c4.536,0.891,60.57,12.917,86.504,38.002c25.935,25.084,22.095,26.811,25.001,33.001s8.34,14.4-5,17.501
	c-13.34,3.101-23.972,4.686-35.501,4.5c-11.53-0.185-40.844-5.078-62.003-20.001c-21.159-14.923-54.502-41.002-54.502-41.002
	s-27.672-5.229-37.002-3c-9.33,2.229-6.27,0.979-10,3.5c-3.73,2.521-14.955,6.075-23.001,9c-8.046,2.926-16.833,5.468-22.001,4.5
	c-5.167-0.968-10.81,0.141-15.501,3c-4.691,2.859-5.5,2.5-5.5,2.5l-1-4.5c0,0-9.848,3.473-11,5c-1.152,1.527,0.5-5,0.5-5
	s-7.063-0.19-8,1.5c-0.937,1.69,0-6.5,0-6.5s-1.993-0.066-4.5,3c-2.507,3.066,2.795-7.898,5-10.001c2.206-2.103,0.285-3.897-0.5-3
	c-0.785,0.897,16.665-6.072,17.5-6c0.836,0.072,5.18-0.88-2-4.5s-24.817-12.549-27.001-14.001c-2.184-1.451-0.987-1.857-5,1
	c-4.014,2.857-5.819,4.833-10,6.5c-4.181,1.667-9.313,3.412-13.501,8c-4.187,4.588-10.12,9.345-15.5,10
	c-5.38,0.656-23.501,5-23.501,5s0.243-4.988,0-5.5c-0.242-0.513-9,3-9,3l-1-3.5l-2.5-1l4.5-5.5c0,0,3.815-5.746,7-6
	c3.186-0.255,10.729-1.774,15.001-2c4.272-0.227,9.818-4.122,7.5-9c-2.318-4.879-3.5-5.5-3.5-5.5s-9.088-0.048-14.5,1.5
	c-5.412,1.549-6.884,3.66-8.5,4.5s-2.259-1.262-3-1.5c-0.741-0.238-6.734,0.57-7,1c-0.267,0.43-2-2.5-2-2.5s-3.154-3.284-2-4.5
	c1.154-1.216,4.08-2.902,5.5-3.5c1.42-0.598,2.268-3.61,4.5-4c2.232-0.39,10.111-3.391,13.001-5c2.89-1.609,4.651-5.206-4.5-5
	c-9.151,0.206-13.763,0.525-19.501-1c-5.737-1.525-11.625-4.93-19.001-3s-15.85,3.312-17.001,3c-1.15-0.312-0.841-1.138-3.5-3
	s-2.084-2.655-7-1.5c-4.916,1.155-10.006,0.913-13-2c-2.994-2.913-4.5-4.5-4.5-4.5s-6.339-1.7-7.5-4c-1.161-2.301-3.543-0.317,0-9.5
	s13.391-31.84,20.001-37.502c6.61-5.662,14.393-22.491,38.502-27.501c24.109-5.011,39.695-9.131,47.002-12.001
	S131.477,34.097,148.008,25.501z"/>
</svg>
