<?xml version="1.0" encoding="utf-8"?>
<!-- Generator: Adobe Illustrator 16.0.0, SVG Export Plug-In . SVG Version: 6.00 Build 0)  -->
<!DOCTYPE svg PUBLIC "-//W3C//DTD SVG 1.1//EN" "http://www.w3.org/Graphics/SVG/1.1/DTD/svg11.dtd">
<svg version="1.1" id="Layer_1" xmlns="http://www.w3.org/2000/svg" xmlns:xlink="http://www.w3.org/1999/xlink" x="0px" y="0px"
	 width="229.512px" height="258.513px" viewBox="0 0 229.512 258.513" enable-background="new 0 0 229.512 258.513"
	 xml:space="preserve">
<path fill-rule="evenodd" clip-rule="evenodd" d="M75.004,45.002c0.467-7.66,7.144-20.585,10.5-22.001c0.915-0.386,1-2,1-2h2.5
	c0,0,1.178-2.317,3.5-2.5c2.322-0.183,1.276,0.576,2.5,0.5s0.554-1.196,2.5-1.5c1.947-0.304,1.381-1.276,1.5-1c0.12,0.275,1,1,1,1
	l1.5-1l4.5,3c0,0,2.006-0.218,2,0s1.643-1.49,2.5-1.5c0.857-0.01,1.228,0.562,2,1c0.772,0.438,0.827,1.235,1.5,1s0.785-1.158,1.5-1
	c0.715,0.158,1.071-0.251,1.5,0c0.43,0.251,0.5,1,0.5,1h2l2,2.5c0,0,0.41-0.683,2,1c1.59,1.684,1.778,2.572,5,5
	c3.222,2.429,3.406,2.797,6,3.5c2.594,0.704,4.801,1.316,6.5,1.5c1.699,0.185,3.032-0.313,4,1.5c0.969,1.814,0.771,2.431,1.5,3.5
	c0.73,1.07,0.056,1.735,1,2.5c0.944,0.765,1.309,0.713,1.5,2c0.191,1.288,0.275,2.369,0,4c-0.276,1.631-1.09,1.5-1.5,2.5
	c-0.411,1-0.029,1.479-0.5,2.5c-0.471,1.022-1.5,2-1.5,2v-1.5l-1.5-0.5c0,0-1.344,2.531-2,2.5c-0.656-0.03-1-2-1-2l-3,2.5l-0.5-2h-2
	l-0.5-2.5l-1.5,1l-0.5-2l-2,1l-1-2l-1.5,0.5l-2-2l-1,1l-0.5-0.5l-0.5-1.5h-1.5c0,0-3.5-1.341-3.5-0.5s3.987,5.5,4.5,5.5
	s2.163,0.108,2-0.5c-0.163-0.607,1-0.5,1-0.5v1.5l1-0.5l0.5,1h1l0.5,1.5l1.5-0.5l0.5,0.5h1.5v1.5h1l0.5,1l1.5-1h0.5l1,1.5l2-1.5v2
	l1,0.5l0.5,1.5l1.5-1c0,0-0.103,4.114-2,5.5c-1.898,1.386-2.506,2.559-4,3c-1.494,0.441-4.51,0.922-8-1
	c-3.49-1.922-10.501-5.5-10.501-5.5s-7.308,0.131-9,0.5c-1.692,0.369-2.101,0.708-1.5,2.5c0.602,1.792,0.67,1.312,1.5,3
	c0.83,1.688,0.891,2.734,1,4.5c0.11,1.766,0.62,2.525,2,3.5c1.379,0.975,1.678,1.148,3,3c1.322,1.852,1.697,2.412,2,4
	c0.303,1.589,0.914,2.507,2.5,4.5c1.586,1.993,0.853,1.13,1.5,3.5c0.647,2.37,10.822,15.137,12.5,20.001
	c1.679,4.865,5,13.001,5,13.001s3.155,2.069,7,10c3.332,6.873,5,8.5,5,8.5s3.755,6.704,4.5,15.5s3.033,7.311,3.5,12
	c0.467,4.69,0.5,4.5,0.5,4.5s-0.337,15.363,5,19.501c5.337,4.138,4.251,11.362,15.001,12c10.749,0.639,14.649,1.379,18.001-1
	c3.352-2.378,3.069-3.329,3-10s-3.133-14.599-8-20.001s-9.5-10-9.5-10l18.501,13c0,0,5.645,4.893,8.5,14.501
	c2.856,9.608,3.83,18.094-3.5,24.501c-7.331,6.407-3.369,8.137-13.501,9c-10.132,0.864-27.001-2.5-27.001-2.5l-0.5,9
	c0,0,2.124,7.102,6.5,9s7,3,7,3l2.5,1c0,0,1.65,1.143,2,3s1.184,1.32,1,2.5c-0.183,1.18-2,2.5-2,2.5l-1-3h-2l-1-1.5h-6.5
	c0,0,0.127,2.438,0.5,4c0.373,1.562,0.028,2.076-0.5,3.5s-1.5,4-1.5,4l-1-3c0,0-4.518-4.298-5.5-6c-0.982-1.703-3.151-3.259-5.5-1.5
	s-2.354,1.587-4.5,2c-2.146,0.413-4,1-4,1l-1,1l-0.5-3c0,0,0.349-3.36,4-4.5c3.651-1.14,3.201-2.722,4.5-4.5
	c1.299-1.778-0.217-9.919-1-11.5c-0.783-1.582-2.434-3.758-3.5-6.5c-1.066-2.742-1.5-5-1.5-5s-7.506-1.834-11.5-6
	c-3.995-4.167-9.229-9.83-16.001-13c-6.771-3.171-13.187-7.348-15.001-10c-1.813-2.652-3.5-6-3.5-6s-7.47,2.746-12,3
	s-6.774,1.973-11,4.5c-4.227,2.527-6.581,3.131-9,7.5c-2.42,4.369-2.712,5.186-3.5,8c-0.788,2.815,0.03,3.814-1.5,6s-5.052,7.08-6,9
	c-0.949,1.921-3.577,8.095-3.5,11.5s-0.543,4.709,0,7c0.543,2.291-0.5,4.5-0.5,4.5l-2-2.5c0,0-1.018-5.629-2-4
	c-0.982,1.628-1.075,6.31-2.5,8.5c-1.425,2.19-7,7-7,7l-2-6c0,0-11.968,1.296-13.5,1.5s-2.413,0.601-3,1.5c-0.587,0.899-1,2-1,2
	s-1.18-4.154-0.5-5.5c0.679-1.346,3.098-2.646,3.5-3c0.402-0.354,1.169-5.049,2-4.5c0.831,0.549,1.674-1.288,2-1
	c0.326,0.288,5,0,5,0s14.057-17.124,14.5-22.501c0.444-5.377,9.882-41.633,13.501-44.502c3.619-2.869,10.894-15.394,15.5-19.501
	c4.607-4.108-5.032-18.408-5-22.001c0.031-3.593-1.658-10.414-1-14.5c0.658-4.087,0.875-6.869,1-8s0.07-2.486-1-3
	c-1.071-0.514,0.153-0.187-2,0s-3.989,0.84-5.5,0c-1.511-0.841-1.368-1.599-2-1.5c-0.632,0.099-0.033,0.733-1.5,1
	c-1.468,0.267-0.524-0.668-2,0.5c-1.476,1.168-0.983,0.684-2,2c-1.017,1.316-0.554,1.03-2,1.5s-2.04-0.432-2,1s-0.32,0.746,0,2
	s0,2,0,2s-2.219-1.676-2-3.5c0.218-1.824-0.079-2.448,0-3c0.078-0.552-4.922,2.227-4.5,3.5s0.785,2.092,1,2.5
	c0.215,0.408-0.5,1-0.5,1s-4.487-1.511-2.5-6.5c1.987-4.989,4.337-4.146,4.5-4c0.164,0.146,8.355-2.887,9-4.5
	c0.646-1.613,3.835-1.939,6-2.5c2.166-0.562,4.238-0.581,5-3c0.762-2.419,0.716-5.5,2-8c1.284-2.5,0.671-1.504,2-3.5
	C76.839,77.999,74.537,52.663,75.004,45.002z"/>
</svg>
