<?xml version="1.0" encoding="utf-8"?>
<!-- Generator: Adobe Illustrator 16.0.0, SVG Export Plug-In . SVG Version: 6.00 Build 0)  -->
<!DOCTYPE svg PUBLIC "-//W3C//DTD SVG 1.1//EN" "http://www.w3.org/Graphics/SVG/1.1/DTD/svg11.dtd">
<svg version="1.1" id="Layer_1" xmlns="http://www.w3.org/2000/svg" xmlns:xlink="http://www.w3.org/1999/xlink" x="0px" y="0px"
	 width="187.269px" height="265.398px" viewBox="0 0 187.269 265.398" enable-background="new 0 0 187.269 265.398"
	 xml:space="preserve">
<path fill-rule="evenodd" clip-rule="evenodd" d="M36.017,119.141c0.248-7.542-1.695-10.544-4-16s-8.129-12.24-12-15
	s-7.737-5.651-10-8s-4.037-6.867-2-8s1.183-0.772,0-4s-6.725-10.925-7-18s-1.149-11.336-1-13s2.792-3.601,4-2s2.608,3.385,3,6
	s-0.002,5.451,1,8s1.963,4.925,2,0s-1.186-6.75,0-9s4.905-11.225,5-3s-0.325,9.451,0,12s0.801,5.246,2,2s1.307-4.615,2-6
	s3.007-2.479,3,1s0.122,4.082,0,7s-1.027,7.172,0,7s0.213-1.918,2-3s3.455-2.804,4-2s0.879,1.287,1,3s-0.925,2.907,0,3
	s1.741-1.678,3-2s1.752-1.288,3,0s1.671,2.642,1,3s1.383,0.722,3,1s3.119-1.752,3,3s-1.146,6.258,0,7s2.071,2.039,5,3
	s4.427,0.509,5,2s1.657,2.185,1,5s-1.918,5.39-1,6s1.173-0.655,3-1s1.184-1.61,3,0s3.495,0.136,3,3s-3.161,4.651-2,6s1.46,0.602,2,5
	s-0.219,4.038,2,6s3.367,0.518,4,4s0.217,2.309,1,6s-1.197,3.364,1,6s2.653,3.27,3,6s0.458,3.406,0,6s-1.887,1.381-1,4
	s0.745,4.646,3,3s1.721-1.41,4-4s2.663-4.005,5-6s3.983-3.291,5-5s-0.075-2.496,3-4s3.958-0.816,8-3s5.795-3.698,9-8
	s4.243-6.564,7-14s1.794-9.341,4-15s5.31-9.167,6-10s2.621-4.136,2,2s-1.173,8.074,1,4s2.837-5.762,4-9s2.883-24.426,3-32
	s-0.347-17.478,0-20s2.825-7.548,4-4s0.48,13.204,1,17s1.02,12.13,1,14s3.697,9.009,5-1s1.892-16.673,2-23
	c0.108-6.327-1.027-9.714,0-14s3.684-13.488,5-4s1.029,11.703,1,16s0.259,8.824,0,13s-2.179,14.703,2,3s5.292-15.764,6-20
	s0.763-7.6,2-10s5.084-6.384,5-1s-1.387,11.278-2,15s-0.973,7.309-2,10s-1.755,11.058,2,4s4.75-8.228,5-10s2.715-2.506,2,2
	s-0.755,5.284-2,8s-1.423,6.274,2,3s5.633-5.782,7-7s6.013-0.486,3,3s-3.837,2.72-4,5s-2.781,3.995,1,4c3.781,0.005,5.644-3.34,5,0
	s-2.666,3.716-2,6s1.035,4.151,2,5s2.253-0.483,0,3s-3.332,4.722-4,6s-0.206,3.962,1,4s1.943-0.407,1,2s-0.505,3.868,1,4
	s2.495-1.951,2,3s0.334,11.505-1,13s-4.941,2.411-4,5s1.219,1.456,2,3c0.781,1.544,2.253,0.017,1,4s-1.849,7.528-5,13
	s-3.515,4.964-5,7s-2.354,3.294-1,6s2.371,1.936,1,6s-1.456,3.447-4,11s-1.363,7.548-5,11s-1.649,3.534-5,7s-3.637,5.199-7,6
	s-6.015-0.066-9,1s-2.186-0.976-5,2s-2.542,1.92-4,4s-0.633,1.46-3,2s-1.334-0.84-3,1s-1.851,1.7-4,2s-1.022-2.944-4,0
	s0.427,4.94-3,4s-1.975-2-5-4s-4.445-2.669-5,1s-2.894,11.222,0,14s1.679,2.898,7,6s7.022,5.148,11,7s2.066,1.709,9,5
	s6.237,3.12,9,7s7.283,7.841,6,10s-0.693,2.346-3,3s-2.498-1.553-2,3s-0.774,6.688-1,7s1.101-1.462-1,0s-1.531-0.107-4,2
	c-2.469,2.107-2.312,2.928-4,2s-2.978-3.257-4-1s0.701,4.042-2,2s-1.805-3.452-3-2s1.955,0.593-1,2s-4.287,0.753-5,2
	s3.473,2.798,0,3s-4.343,0.398-5-2s-0.584-4.407-2-3s-3.089-0.396-3,2s1.129,2.914-1,3s-2.307,0.903-4-1s-2.374-1.637-6-2
	s-2.535,1.422-4-2s-0.396-3.658-3-4s-4.683-1.612-6,0s-1.923,2.482-3-1s-1.475-4.884-3-7s-2.52-3.908-3-1s-0.715,3.342-1,6
	s1.044,3.663-1,5s1.206,3.088-4,3s-8.391-1.637-10,0s-1.275,0.648-1,3s0.564,2.889-1,4s-1.309-0.25-4,1
	c-2.692,1.251-2.03,0.176-2.693,1.72c-0.847,1.97,0.19,1.5-1.307,3.28s-0.75,2.105-3.761,3.578c-5.441,2.66,0.79-2.964,0.761-8.578
	c-0.027-5.313-1.525-0.961-3-1s-4.042-0.536-5,0s-2.007,0.474-2,2s0.038,1.76,1,4c0.399,0.929,0.215,1.426,0,2
	c-0.359,0.958-3.224-0.035-4-2c-1.476-3.739-1.743-3.132,0-7s-0.226-2.797,3-5s3.416-2.072,7-3s4.323-1.232,7-2s4.794-0.933,5-2
	s1-10,1-10l3-12c0,0,0.921-9.34-5-3s-6.79,6.396-9,7s-4.617,0.016-6,1s-2.087,2.21-3,2s-0.973,0.301-1,2s-0.522,14.297-7,13
	s-4-3-4-3s0.591,2.207,4,0s2.936-3.974,3-7s0.144-6.169-3-5s-3.361,1.312-4,4s-1.683,5.866-3,1s-1-6-1-6l-8-2v8
	c0,0-9.396-10.791,0-13c8.04-1.891,21.813-0.878,22-1c1.713-1.118,0.324-10.271,3-15c2.191-3.872,5.151-2.119,8-9s3.337-11.896-3-16
	s-9-3-9-3s-7.005,5.17-7,6s0,6,0,6s-2.947,2.575-4-4s-1.407-7.17-1-9s1-4,1-4v-5c0,0-3.455-6.838,2-13s6.337-5.814,9-8
	s5.913-0.246,4-8S35.769,126.683,36.017,119.141z"/>
<path fill-rule="evenodd" clip-rule="evenodd" fill="none" d="M48.017,264.141"/>
</svg>
