<?xml version="1.0" encoding="utf-8"?>
<!-- Generator: Adobe Illustrator 16.0.0, SVG Export Plug-In . SVG Version: 6.00 Build 0)  -->
<!DOCTYPE svg PUBLIC "-//W3C//DTD SVG 1.1//EN" "http://www.w3.org/Graphics/SVG/1.1/DTD/svg11.dtd">
<svg version="1.1" id="Layer_1" xmlns="http://www.w3.org/2000/svg" xmlns:xlink="http://www.w3.org/1999/xlink" x="0px" y="0px"
	 width="450.5px" height="450.5px" viewBox="0 0 450.5 450.5" enable-background="new 0 0 450.5 450.5" xml:space="preserve">
<path d="M82,90c17.737-12.444,19.961-22.637,27-38c7.039-15.364,13.928-28.562,21-34c7.073-5.439,10.853-10.705,21-12
	c10.148-1.295,17.97-2.787,19,1c1.031,3.787,4.264,10.699,1,17c-3.263,6.301-3.949,9.027-5,14c-1.051,4.972-2.463,10.856,8,5
	c10.463-5.857,19.188-7.555,37-10c17.813-2.446,67.115-12.074,110,12c42.886,24.074,51.951,23.357,72,54
	c20.05,30.642,23.732,38.14,30,61c6.269,22.859,9.336,19.743,4,36c-5.334,16.257-0.191,13.559-11,31
	c-10.808,17.44-12.179,13.523-12,26c0.18,12.476,2.993,19.546,23,43c20.008,23.453,14.021,19.826,16,39
	c1.979,19.173,5.09,24.046,1,32c-4.089,7.953-7.863,12.67-17,15c-9.136,2.329-20.508,3.471-28,1c-7.491-2.472-12.233-3.673-20-7
	c-7.766-3.328-15.851-4.898-26-5c-10.148-0.103-44.414,1.203-62,6c-17.586,4.796-9.976,0.731-30,11
	c-20.023,10.268-19.366,9.567-33,16c-13.634,6.432-18.97,3.431-31,10c-12.029,6.568-11.1,4.643-16,7c-4.899,2.356-9.88,2.143,3-7
	c12.88-9.144,14.168-9.282,21-12c6.832-2.719,7.401-3.371,17-9c9.6-5.63,3.367-4.434,17-12c13.633-7.567,16.354-11.256,34-16
	c17.646-4.745,19.854-7.399,28-10c8.146-2.602,8.991-0.893,22-2c13.009-1.108,7.931-2.92,22-1c14.07,1.919,13.828,1.237,27,5
	c13.172,3.762,22.273,6.409,29,8c6.728,1.59,5.562,3.703,14,1c8.439-2.704,10.493-0.29,12-11c1.508-10.711-3.768-21.584-10-33
	c-6.231-11.416-13.692-21.749-22-29c-8.307-7.252-19.392-11.627-25-14c-5.607-2.374-6.426-2.694-14,0
	c-7.574,2.693-10.913-2.017-19,3c-8.087,5.016-8.255,6.224-14,6c-5.745-0.225-11.557-2.962-16-4c-4.442-1.039-3.563-3.441-13-3
	c-9.436,0.44-9.653-0.641-34-2c-24.346-1.36-33.387-1.146-48-1c-14.612,0.146-25.422-2.119-28-2c-2.578,0.118-6-8-6-8
	s10.359-0.743,15-1c4.642-0.257,9.702-0.25,13,0s9.482-3.688-4-4c-13.481-0.313-24,2-24,2l-3-4l15-7c0,0,4.325-1.791-2-2
	s-12.668,2.463-19,1s-25-13-25-13s-15.758,1.477-23,6c-7.242,4.522-14,4-14,4s-11.622-0.605-26,3c-2.433,0.609,2.352-1.044-5-1
	c-7.351,0.044-13.012,0.627-6-6c7.013-6.627,10.036-4.641,16-5c5.964-0.36,9.845-1.079,15-3c5.156-1.921,3.468-1.544,9-3
	s19.646-5.339,6-11c-13.646-5.661-24.081-6.791-29-8s-3.677,1.605-10,4c-6.322,2.394-15.348,6.51-23,8
	c-7.651,1.489-12.917,3.605-17-1c-4.083-4.606-3.301-6.1-8-7c-4.699-0.901-21.813-9.079-22-15c-0.186-5.921,4.782-19.072,8-22
	c3.218-2.929,13.618-26.239,17-29c4.093-3.342,7.179-23.488,14.5-31.978C46.5,122.023,57.591,107.125,82,90z"/>
</svg>
