<?xml version="1.0" encoding="utf-8"?>
<!-- Generator: Adobe Illustrator 16.0.0, SVG Export Plug-In . SVG Version: 6.00 Build 0)  -->
<!DOCTYPE svg PUBLIC "-//W3C//DTD SVG 1.1//EN" "http://www.w3.org/Graphics/SVG/1.1/DTD/svg11.dtd">
<svg version="1.1" id="Layer_1" xmlns="http://www.w3.org/2000/svg" xmlns:xlink="http://www.w3.org/1999/xlink" x="0px" y="0px"
	 width="500px" height="500px" viewBox="0 0 500 500" enable-background="new 0 0 500 500" xml:space="preserve">
<circle fill="#E64C3C" cx="250" cy="250" r="249.999"/>
<path fill-opacity="0.2" d="M271.895,72.013l-38.06-1.866l-37.688,110.077l9.889,92.727l-47.949,58.77
	c0,0-30.971,64.928-31.344,65.674s-28.92,15.857-28.92,15.857l-7.836,3.359l0.934,6.529l53.283,53.4
	c92.512,43.033,205.929,26.387,282.265-49.949c43.928-43.926,68.078-100.133,72.479-157.568L289.992,59.14L271.895,72.013z"/>
<path fill-rule="evenodd" clip-rule="evenodd" fill="#4EBA6F" d="M173.554,77.357c0.783-12.821,11.957-34.454,17.574-36.822
	c1.531-0.646,1.674-3.348,1.674-3.348l4.184,0c0,0,1.973-3.878,5.86-4.183c3.886-0.306,2.136,0.963,4.183,0.835
	c2.049-0.125,0.928-2.001,4.184-2.509c3.259-0.509,2.312-2.136,2.511-1.674c0.201,0.461,1.674,1.674,1.674,1.674l2.512-1.675
	l7.53,5.022c0,0,3.359-0.365,3.348,0c-0.009,0.365,2.752-2.495,4.187-2.51c1.433-0.016,2.054,0.94,3.347,1.672
	c1.293,0.734,1.383,2.068,2.51,1.674c1.127-0.392,1.314-1.938,2.512-1.674c1.195,0.265,1.792-0.419,2.51,0
	c0.719,0.422,0.836,1.675,0.836,1.675h3.348l3.348,4.185c0,0,0.687-1.144,3.347,1.674c2.66,2.817,2.977,4.303,8.371,8.368
	c5.391,4.064,5.699,4.682,10.041,5.859s8.037,2.202,10.881,2.509c2.842,0.31,5.072-0.523,6.691,2.511
	c1.623,3.037,1.289,4.067,2.512,5.859c1.221,1.79,0.094,2.902,1.674,4.184c1.58,1.28,2.189,1.191,2.51,3.346
	c0.322,2.156,0.463,3.965,0,6.695c-0.459,2.73-1.824,2.511-2.51,4.184c-0.686,1.673-0.047,2.476-0.836,4.185
	c-0.787,1.71-2.512,3.348-2.512,3.348V89.91l-2.512-0.836c0,0-2.248,4.236-3.348,4.185c-1.096-0.05-1.672-3.349-1.672-3.349
	l-5.021,4.185l-0.836-3.347l-3.348-0.001l-0.838-4.183l-2.51,1.672l-0.836-3.346l-3.348,1.674l-1.674-3.348l-2.512,0.836
	l-3.35-3.346l-1.672,1.673l-0.838-0.836l-0.836-2.512l-2.51,0c0,0-5.858-2.244-5.858-0.835c0,1.407,6.673,9.205,7.532,9.204
	c0.857,0,3.621,0.181,3.346-0.836c-0.271-1.018,1.674-0.837,1.674-0.837v2.51l1.676-0.836l0.836,1.674h1.674l0.838,2.511l2.51-0.837
	l0.836,0.836h2.512v2.511h1.674l0.836,1.674l2.51-1.674h0.838l1.674,2.511l3.348-2.511l0.002,3.348l1.674,0.837l0.836,2.511
	l2.512-1.674c0,0-0.176,6.885-3.35,9.205c-3.176,2.321-4.193,4.284-6.695,5.021c-2.502,0.738-7.549,1.543-13.389-1.673
	c-5.842-3.218-17.574-9.207-17.574-9.207s-12.23,0.221-15.064,0.837c-2.832,0.618-3.517,1.185-2.51,4.186
	c1.007,2.999,1.121,2.194,2.51,5.021c1.39,2.826,1.491,4.577,1.675,7.532c0.184,2.956,1.037,4.226,3.348,5.859
	c2.309,1.629,2.809,1.92,5.021,5.021c2.212,3.097,2.84,4.035,3.346,6.694c0.509,2.659,1.529,4.196,4.186,7.532
	c2.656,3.334,1.428,1.892,2.51,5.857c1.084,3.967,18.11,25.333,20.923,33.474c2.809,8.142,8.369,21.759,8.369,21.759
	s5.277,3.462,11.717,16.737c5.574,11.5,8.365,14.228,8.365,14.228s6.285,11.218,7.531,25.94c1.246,14.725,5.078,12.236,5.859,20.086
	c0.783,7.852,0.836,7.531,0.836,7.531s-0.563,25.713,8.367,32.639c8.936,6.924,7.117,19.016,25.109,20.082
	c17.988,1.07,24.516,2.309,30.125-1.672s5.137-5.57,5.021-16.738c-0.115-11.166-5.244-24.434-13.391-33.473
	c-8.145-9.041-15.898-16.738-15.898-16.738l30.961,21.758c0,0,9.449,8.189,14.229,24.27c4.781,16.08,6.412,30.283-5.857,41.008
	c-12.27,10.723-5.641,13.617-22.596,15.063c-16.957,1.445-45.191-4.184-45.191-4.184l-0.838,15.063c0,0,3.559,11.885,10.881,15.063
	s11.717,5.021,11.717,5.021l4.186,1.672c0,0,2.762,1.914,3.346,5.023c0.586,3.111,1.982,2.209,1.674,4.186
	c-0.307,1.973-3.348,4.184-3.348,4.184l-1.672-5.021h-3.348l-1.674-2.51h-10.881c0,0,0.213,4.08,0.838,6.693
	c0.625,2.615,0.047,3.475-0.838,5.859c-0.883,2.383-2.51,6.695-2.51,6.695l-1.674-5.021c0,0-7.561-7.195-9.207-10.043
	c-1.645-2.85-5.271-5.455-9.205-2.512c-3.932,2.943-3.939,2.656-7.531,3.348s-6.693,1.674-6.693,1.674l-1.676,1.674l-0.836-5.02
	c0,0,0.584-5.625,6.695-7.531c6.109-1.908,5.357-4.557,7.531-7.533c2.176-2.977-0.363-16.6-1.674-19.248
	c-1.311-2.646-4.074-6.289-5.857-10.879c-1.787-4.588-2.512-8.367-2.512-8.367s-12.561-3.07-19.246-10.045
	c-6.688-6.973-15.449-16.451-26.781-21.758c-11.331-5.305-22.068-12.297-25.104-16.736c-3.035-4.439-5.859-10.041-5.859-10.041
	s-12.502,4.594-20.084,5.02c-7.581,0.426-11.336,3.303-18.41,7.533c-7.074,4.229-11.014,5.238-15.063,12.551
	c-4.049,7.313-4.54,8.68-5.858,13.391c-1.319,4.711,0.051,6.383-2.51,10.041c-2.561,3.66-8.455,11.848-10.043,15.064
	c-1.588,3.215-5.985,13.547-5.858,19.248c0.128,5.701-0.908,7.881,0.001,11.715c0.909,3.836-0.838,7.531-0.838,7.531l-3.347-4.184
	c0,0-1.703-9.42-3.348-6.695c-1.645,2.727-1.799,10.563-4.185,14.229c-2.385,3.666-11.715,11.715-11.715,11.715l-3.349-10.041
	c0,0-20.031,2.17-22.595,2.51c-2.564,0.342-4.039,1.006-5.021,2.512c-0.982,1.504-1.674,3.346-1.674,3.346s-1.975-6.953-0.837-9.205
	c1.138-2.254,5.185-4.428,5.858-5.021c0.674-0.592,1.957-8.451,3.348-7.531c1.391,0.918,2.801-2.154,3.348-1.674
	c0.545,0.482,8.368,0,8.368,0s23.526-28.658,24.269-37.658s16.539-69.68,22.595-74.48c6.058-4.803,18.233-25.764,25.943-32.637
	c7.712-6.875-8.422-30.808-8.368-36.822c0.052-6.014-2.775-17.43-1.674-24.269c1.1-6.841,1.465-11.496,1.674-13.39
	c0.209-1.895,0.117-4.162-1.674-5.022c-1.792-0.86,0.258-0.313-3.348,0c-3.604,0.314-6.677,1.407-9.205,0
	c-2.529-1.407-2.29-2.677-3.348-2.511c-1.059,0.166-0.055,1.227-2.51,1.674c-2.457,0.446-0.879-1.119-3.348,0.836
	c-2.47,1.956-1.645,1.145-3.348,3.348c-1.703,2.203-0.928,1.723-3.348,2.51c-2.422,0.786-3.414-0.723-3.348,1.674
	c0.067,2.396-0.535,1.249,0,3.347c0.537,2.099,0.001,3.347,0.001,3.347s-3.714-2.807-3.349-5.858c0.365-3.053-0.131-4.097,0-5.021
	c0.131-0.923-8.237,3.728-7.531,5.857c0.705,2.13,1.314,3.502,1.674,4.185c0.359,0.683-0.838,1.674-0.838,1.674
	s-7.51-2.529-4.183-10.879c3.324-8.351,7.257-6.939,7.53-6.695s13.984-4.832,15.064-7.532c1.079-2.7,6.418-3.244,10.042-4.184
	c3.624-0.939,7.093-0.972,8.368-5.021s1.198-9.206,3.348-13.39c2.15-4.183,1.123-2.518,3.348-5.858
	C176.625,132.582,172.772,90.179,173.554,77.357z"/>
<path d="M543.543,66.789"/>
</svg>
