<?xml version="1.0" encoding="utf-8"?>
<!-- Generator: Adobe Illustrator 16.0.0, SVG Export Plug-In . SVG Version: 6.00 Build 0)  -->
<!DOCTYPE svg PUBLIC "-//W3C//DTD SVG 1.1//EN" "http://www.w3.org/Graphics/SVG/1.1/DTD/svg11.dtd">
<svg version="1.1" id="Layer_1" xmlns="http://www.w3.org/2000/svg" xmlns:xlink="http://www.w3.org/1999/xlink" x="0px" y="0px"
	 width="500px" height="500px" viewBox="0 0 500 500" enable-background="new 0 0 500 500" xml:space="preserve">
<circle fill="#3B97D3" cx="249.793" cy="250.5" r="250"/>
<g opacity="0.8">
	<path fill-rule="evenodd" clip-rule="evenodd" fill="#17351A" fill-opacity="0.4" d="M490.366,182.399L365.245,56.845
		l-10.634,52.053L218.787,391.741l-19.03,29.105l-29.852,14.552l-1.492,13.808l49.211,49.212
		c74.229,9.576,151.93-14.125,208.945-71.141C492.884,360.963,514.138,266.668,490.366,182.399z"/>
	<polygon display="none" fill="#8B5E3C" fill-opacity="0.7" points="269.351,240.807 132.407,102.745 127.556,136.327 
		217.856,302.749 	"/>
</g>
<path fill-rule="evenodd" clip-rule="evenodd" fill="#E57D25" d="M165.1,231.414c0.374-11.38-2.559-15.91-6.036-24.143
	c-3.477-8.233-12.267-18.47-18.106-22.633c-5.841-4.166-11.675-8.527-15.091-12.072c-3.413-3.544-6.09-10.362-3.018-12.072
	c3.074-1.709,1.784-1.166,0-6.035c-1.783-4.871-10.145-16.484-10.562-27.161c-0.415-10.675-1.733-17.105-1.509-19.617
	c0.226-2.509,4.213-5.432,6.035-3.016c1.822,2.413,3.936,5.106,4.526,9.052c0.593,3.946-0.002,8.225,1.51,12.072
	c1.512,3.845,2.963,7.431,3.017-0.001c0.057-7.432-1.787-10.186,0-13.581c1.791-3.394,7.403-16.936,7.545-4.527
	c0.145,12.41-0.488,14.261,0,18.108c0.49,3.846,1.21,7.915,3.02,3.018c1.808-4.897,1.971-6.964,3.018-9.054
	c1.045-2.089,4.537-3.741,4.525,1.51c-0.01,5.249,0.184,6.158,0.001,10.561c-0.185,4.404-1.55,10.822,0,10.563
	c1.55-0.258,0.322-2.895,3.019-4.527c2.695-1.632,5.212-4.231,6.035-3.017c0.822,1.211,1.326,1.941,1.509,4.526
	c0.182,2.585-1.397,4.387-0.001,4.527c1.396,0.139,2.627-2.533,4.527-3.019c1.9-0.483,2.645-1.943,4.527,0
	c1.882,1.944,2.521,3.988,1.509,4.527c-1.013,0.541,2.087,1.09,4.526,1.511c2.439,0.417,4.705-2.645,4.525,4.525
	c-0.176,7.17-1.729,9.443,0,10.563c1.73,1.12,3.127,3.077,7.547,4.527c4.419,1.451,6.679,0.768,7.545,3.018
	c0.863,2.25,2.498,3.297,1.507,7.544c-0.989,4.249-2.894,8.133-1.509,9.054c1.385,0.919,1.771-0.989,4.529-1.509
	c2.754-0.521,1.785-2.429,4.525,0c2.74,2.43,5.272,0.205,4.526,4.526c-0.747,4.321-4.77,7.019-3.019,9.055
	c1.752,2.034,2.204,0.908,3.019,7.543c0.815,6.638-0.331,6.093,3.019,9.054c3.349,2.961,5.079,0.782,6.035,6.037
	c0.955,5.253,0.326,3.482,1.509,9.054c1.181,5.569-1.808,5.075,1.51,9.053c3.314,3.978,4.003,4.934,4.525,9.053
	c0.524,4.119,0.69,5.141,0.001,9.055c-0.691,3.912-2.848,2.082-1.51,6.035c1.338,3.952,1.123,7.012,4.527,4.527
	c3.402-2.485,2.596-2.129,6.035-6.036c3.439-3.908,4.018-6.045,7.544-9.054c3.528-3.009,6.011-4.966,7.545-7.545
	c1.534-2.579-0.111-3.767,4.528-6.036c4.637-2.269,5.971-1.232,12.07-4.527c6.098-3.295,8.744-5.58,13.58-12.071
	c4.836-6.492,6.401-9.905,10.563-21.125c4.162-11.219,2.707-14.094,6.036-22.634c3.329-8.538,8.013-13.831,9.053-15.09
	c1.042-1.256,3.955-6.239,3.019,3.019c-0.938,9.258-1.771,12.184,1.509,6.036c3.279-6.146,4.281-8.695,6.035-13.58
	c1.753-4.886,4.351-36.857,4.526-48.286c0.178-11.428-0.523-26.372,0-30.178c0.522-3.805,4.262-11.389,6.035-6.036
	c1.775,5.353,0.726,19.923,1.509,25.651c0.784,5.729,1.538,18.304,1.51,21.126c-0.029,2.82,5.579,13.593,7.544-1.509
	c1.966-15.102,2.855-25.158,3.018-34.705c0.164-9.546-1.549-14.659,0.001-21.125c1.551-6.468,5.558-20.353,7.544-6.037
	c1.988,14.317,1.554,17.659,1.51,24.143c-0.045,6.485,0.391,13.316,0,19.616c-0.393,6.301-3.287,22.186,3.018,4.526
	c6.305-17.657,7.986-23.785,9.053-30.178c1.069-6.392,1.15-11.468,3.018-15.089c1.867-3.622,7.672-9.633,7.545-1.509
	c-0.126,8.124-2.092,17.018-3.018,22.634c-0.925,5.616-1.468,11.028-3.017,15.09c-1.55,4.061-2.65,16.686,3.017,6.035
	c5.668-10.65,7.168-12.415,7.547-15.089c0.376-2.674,4.096-3.781,3.018,3.018c-1.08,6.801-1.143,7.973-3.019,12.072
	c-1.879,4.098-2.149,9.467,3.017,4.527c5.166-4.939,8.5-8.724,10.563-10.563c2.063-1.838,9.072-0.733,4.527,4.527
	c-4.547,5.26-5.791,4.104-6.035,7.544c-0.245,3.441-4.199,6.027,1.508,6.035c5.704,0.008,8.517-5.039,7.545,0
	c-0.973,5.039-4.023,5.607-3.018,9.054c1.004,3.447,1.563,6.264,3.018,7.545c1.455,1.279,3.4-0.729,0,4.527
	c-3.401,5.255-5.027,7.125-6.035,9.051c-1.008,1.928-0.313,5.98,1.51,6.037c1.818,0.057,2.93-0.615,1.508,3.018
	c-1.424,3.633-0.764,5.837,1.509,6.036s3.765-2.944,3.019,4.526c-0.746,7.471,0.502,17.362-1.51,19.617
	c-2.013,2.254-7.457,3.637-6.035,7.543c1.42,3.907,1.838,2.197,3.018,4.527c1.176,2.33,3.4,0.026,1.509,6.036
	c-1.894,6.009-2.789,11.359-7.545,19.615c-4.755,8.256-5.302,7.49-7.544,10.563c-2.242,3.072-3.552,4.971-1.509,9.054
	c2.042,4.083,3.577,2.92,1.509,9.054c-2.069,6.133-2.197,5.201-6.035,16.598c-3.838,11.396-2.058,11.39-7.545,16.598
	c-5.488,5.21-2.489,5.332-7.546,10.563c-5.056,5.232-5.487,7.845-10.562,9.054c-5.075,1.208-9.075-0.1-13.581,1.509
	c-4.505,1.608-3.298-1.472-7.545,3.018c-4.247,4.491-3.835,2.897-6.036,6.036c-2.198,3.139-0.952,2.202-4.525,3.018
	c-3.571,0.815-2.014-1.268-4.526,1.509c-2.515,2.776-2.794,2.565-6.035,3.019c-3.243,0.452-1.542-4.443-6.035,0
	c-4.495,4.441,0.642,7.454-4.527,6.035c-5.171-1.418-2.979-3.018-7.546-6.035c-4.563-3.019-6.707-4.028-7.543,1.508
	c-0.838,5.539-4.368,16.935,0,21.125c4.367,4.191,2.533,4.373,10.563,9.055c8.029,4.68,10.594,7.768,16.598,10.563
	c6.002,2.793,3.117,2.578,13.579,7.545c10.463,4.965,9.413,4.707,13.579,10.561c4.17,5.855,10.99,11.834,9.055,15.09
	s-1.047,3.539-4.526,4.526c-3.48,0.988-3.77-2.343-3.019,4.526c0.752,6.871-1.165,10.093-1.509,10.563
	c-0.342,0.472,1.661-2.208-1.508,0s-2.312-0.163-6.036,3.019c-3.726,3.18-3.49,4.416-6.036,3.018c-2.546-1.4-4.494-4.916-6.035-1.51
	c-1.542,3.406,1.058,6.1-3.018,3.018c-4.076-3.082-2.723-5.208-4.526-3.018c-1.805,2.191,2.949,0.895-1.509,3.018
	c-4.458,2.125-6.47,1.137-7.546,3.018c-1.074,1.881,5.24,4.224,0.001,4.527c-5.241,0.302-6.555,0.602-7.544-3.018
	c-0.99-3.618-0.883-6.65-3.019-4.527c-2.137,2.124-4.663-0.598-4.526,3.018c0.135,3.617,1.703,4.398-1.509,4.527
	c-3.213,0.13-3.48,1.363-6.036-1.51c-2.555-2.871-3.583-2.468-9.055-3.018c-5.471-0.547-3.824,2.146-6.035-3.018
	c-2.21-5.163-0.598-5.52-4.527-6.035c-3.928-0.516-7.064-2.433-9.053,0c-1.988,2.434-2.902,3.746-4.527-1.51
	c-1.623-5.254-2.225-7.369-4.526-10.563c-2.302-3.192-3.802-5.895-4.526-1.507s-1.079,5.041-1.51,9.053
	c-0.43,4.012,1.576,5.526-1.508,7.545c-3.084,2.02,1.819,4.66-6.035,4.526c-7.855-0.132-12.662-2.469-15.09,0
	c-2.428,2.47-1.925,0.979-1.509,4.526c0.416,3.55,0.852,4.359-1.509,6.037c-2.36,1.676-1.977-0.379-6.037,1.508
	c-4.062,1.891-3.061,0.266-4.063,2.596c-1.278,2.973,0.286,2.264-1.973,4.949c-2.258,2.688-1.13,3.178-5.674,5.398
	c-8.211,4.016,1.191-4.473,1.147-12.942c-0.04-8.017-2.302-1.45-4.526-1.509s-6.099-0.809-7.545,0
	c-1.445,0.809-3.028,0.716-3.018,3.018s0.057,2.654,1.509,6.035c0.603,1.402,0.325,2.151,0.001,3.018
	c-0.542,1.444-4.865-0.052-6.037-3.018c-2.227-5.64-2.629-4.727,0-10.563c2.631-5.836-0.34-4.221,4.527-7.544
	c4.867-3.325,5.154-3.128,10.563-4.526c5.408-1.4,6.523-1.859,10.562-3.019c4.04-1.159,7.234-1.406,7.546-3.019
	c0.311-1.609,1.508-15.09,1.508-15.09l4.527-18.105c0,0,1.39-14.093-7.544-4.526c-8.935,9.565-10.246,9.649-13.581,10.562
	c-3.334,0.912-6.966,0.024-9.054,1.508c-2.087,1.487-3.149,3.338-4.526,3.02s-1.467,0.453-1.508,3.018
	c-0.043,2.564-0.789,21.574-10.563,19.616s-6.035-4.526-6.035-4.526s0.892,3.33,6.035,0s4.43-5.998,4.526-10.563
	c0.096-4.565,0.218-9.309-4.527-7.544c-4.743,1.766-5.071,1.978-6.035,6.035c-0.963,4.057-2.539,8.852-4.526,1.509
	c-1.987-7.341-1.509-9.055-1.509-9.055l-12.072-3.018v12.073c0,0-14.178-16.283,0-19.616c12.131-2.854,32.914-1.323,33.197-1.509
	c2.584-1.688,0.488-15.5,4.526-22.634c3.306-5.845,7.772-3.198,12.071-13.581c4.299-10.382,5.036-17.948-4.527-24.143
	c-9.563-6.193-13.579-4.526-13.579-4.526s-10.571,7.802-10.563,9.054s-0.001,9.053-0.001,9.053s-4.447,3.885-6.035-6.035
	s-2.123-10.82-1.509-13.58c0.614-2.762,1.509-6.036,1.509-6.036v-7.544c0,0-5.213-10.318,3.019-19.615
	c8.229-9.299,9.562-8.775,13.579-12.072c4.018-3.299,8.922-0.371,6.036-12.07C168.249,245.365,164.726,242.795,165.1,231.414z"/>
<path fill="#8B5E3C" d="M490.812,6.66"/>
<path fill="#8B5E3C" d="M-5.282,440.439"/>
<path fill="#8B5E3C" d="M588.361,201.039"/>
<path fill="#8B5E3C" d="M691.792,494.706"/>
<path fill="#8B5E3C" d="M601.29,227.16"/>
</svg>
