<?xml version="1.0" encoding="utf-8"?>
<!-- Generator: Adobe Illustrator 16.0.0, SVG Export Plug-In . SVG Version: 6.00 Build 0)  -->
<!DOCTYPE svg PUBLIC "-//W3C//DTD SVG 1.1//EN" "http://www.w3.org/Graphics/SVG/1.1/DTD/svg11.dtd">
<svg version="1.1" id="Layer_1" xmlns="http://www.w3.org/2000/svg" xmlns:xlink="http://www.w3.org/1999/xlink" x="0px" y="0px"
	 width="500px" height="500px" viewBox="0 0 500 500" enable-background="new 0 0 500 500" xml:space="preserve">
<circle fill="#35495E" cx="249.575" cy="250.136" r="250"/>
<g>
	<path opacity="0.4" fill="#63CBEB" fill-opacity="0.7" d="M426.351,426.912c49.394-49.393,73.781-114.313,73.196-179.048
		L387.73,136.048L109.087,412.641l80.129,80.129C271.471,513.148,362.062,491.202,426.351,426.912z"/>
</g>
<path fill-rule="evenodd" clip-rule="evenodd" fill="#3B97D3" d="M76.868,365.426c0,0,45.707-89.336,134.737-93.335
	c4.649-0.208-4.649-13.12,66.668-76.491c2.11-1.876-0.368,7.216,2.807,9.123c3.176,1.905,3.608-0.918,7.019,2.105
	c3.41,3.023-1.24,7.178,4.912,7.719c6.151,0.541,7.246-5.167,10.526-0.702c3.278,4.467,4.21,7.019,4.21,7.019
	s9.322-55.411-72.984-51.931c-15.445,0.652-47.018,59.65-47.018,59.65l-7.719-2.807c0,0-9.451-5.229-10.526-7.719
	c-11.868-27.471-10.542-3.111-12.632-15.44c-1.849-10.905-8.386-13.077-8.421-13.333c-2.043-14.729-5.634-10.176-6.317-14.737
	c-3.488-23.299-9.807-8.608-6.314-16.842c2.758-6.507-2.105-14.036-2.105-14.036s70.521-17.974,87.721-15.439
	c1.316,0.194-1.293-28.257,50.527-44.211c2.908-0.896,30.176,17.545,30.176,17.545s2.543-12.202,24.561-0.701
	c22.018,11.499,14.902,9.148,15.439,10.525c0.535,1.375,50.422,3.672,65.965,64.562c15.543,60.891,0.832,84.519-6.314,111.582
	c-7.146,27.061-35.226,73.253-80.002,87.018c-44.777,13.764-78.598,18.246-78.598,18.246l28.772,18.245c0,0,11,5.137,0,7.72
	c-11.001,2.582-10.101,5.564-17.544-0.702c-7.444-6.267-28.07-23.158-28.07-23.158s-97.754,3.788-98.949,0.702
	s0.325,12.682-12.631,16.142c-12.957,3.458-2.776-3.957-0.703-2.808c2.075,1.147,7.791-10.549,5.615-12.632
	s-25.805-1.415-30.879-7.72c-5.071-6.305-5.565-5.631-4.209-9.123c1.355-3.492-3.91-4.877-5.614-6.315
	C73.831,368.805,76.868,365.426,76.868,365.426z"/>
</svg>
