<?xml version="1.0" encoding="utf-8"?>
<!-- Generator: Adobe Illustrator 16.0.0, SVG Export Plug-In . SVG Version: 6.00 Build 0)  -->
<!DOCTYPE svg PUBLIC "-//W3C//DTD SVG 1.1//EN" "http://www.w3.org/Graphics/SVG/1.1/DTD/svg11.dtd">
<svg version="1.1" id="Layer_1" xmlns="http://www.w3.org/2000/svg" xmlns:xlink="http://www.w3.org/1999/xlink" x="0px" y="0px"
	 width="500px" height="500px" viewBox="0 0 500 500" enable-background="new 0 0 500 500" xml:space="preserve">
<circle fill="#35495E" cx="250" cy="250" r="250"/>
<path fill-opacity="0.2" d="M210.094,287.458l-6.344,94.778l-20.522,18.657l97.247,97.247
	c53.479-6.53,105.253-30.314,146.302-71.363c27.409-27.409,47.121-59.6,59.14-93.885L383.232,231.113L210.094,287.458z"/>
<path fill="#94A4A5" d="M413.901,324.564c-0.371-5.922-2.776-22.021-4.348-29.055c-1.573-7.03-10.086-28.775-10.92-35.252
	c-0.834-6.479-5.46-18.32-10.732-24.89c-5.273-6.569-24.984-20.912-38.955-26.464c-13.973-5.551-32.754-8.881-47.467-10.084
	c-14.713-1.203-32.939,0.463-42.285-2.868s-3.055-3.887-15.546-6.106c-12.491-2.222-18.136,1.016-23.687-2.222
	c-5.553-3.238-5.645-7.125-9.716-8.791c-4.071-1.665-6.292-1.294-7.495-5.365c-1.202-4.072,0.648-3.146-3.701-3.98
	c-4.349-0.833-4.627,0.649-9.16-2.127c-4.535-2.776-5.273-0.74-6.479-5.274c-1.203-4.534-0.369-2.684,0.002-6.477
	c0.37-3.794-7.68-7.033-14.713-10.919c-7.031-3.886-7.957-7.958-19.615-17.395c-11.658-9.438-17.396-11.937-23.873-14.065
	c-6.476-2.128-5.552,0.371-11.288-6.939c-5.737-7.31-10.456-13.603-13.694-14.712c-3.238-1.111-4.811-0.464-4.533-0.741
	c0.277-0.278-3.888,1.943-4.996,6.756c-1.111,4.812-1.13,4.498-1.62,6.177c-0.489,1.678-0.419,2.891-0.442,3.24
	c-0.023,0.35-0.117,1.818-0.955,1.633c-0.84-0.188-0.444,1.258-0.258,0.861c0.188-0.396,1.445,2.331,0.863,1.096
	s2.308,3.894,1.958,9.092c-0.351,5.198-1.911,4.382-2.122,4.406c-0.209,0.022-2.33,0.163-2.33,0.069c0-0.093,0-1.399,0-1.399
	l-1.189,0.047c0,0-1.981,2.96-2.471,3.567c-0.49,0.605-1.516,1.514-1.516,2.633c0,1.12,3.498,7.67,4.662,10.141
	c1.166,2.47,8.532,8.906,9.978,10.7c1.445,1.795,4.384,10.117,3.917,20.725c-0.408,9.285,1.131,10.049,1.348,10.08
	c0.002-0.002,0.002-0.01,0.005-0.009c0.031,0.003,0.027,0.014-0.005,0.009c-0.153,0.186,4.346,10.118,4.783,11.041
	c0.443,0.933,4.402,5.077,4.402,5.077s5.381,19.547,8.609,22.058c3.227,2.51,6.275,5.56,6.275,8.788s0.896,3.049,3.229,6.456
	c2.331,3.407,1.973,6.635,4.482,7.173c2.512,0.538,0.107,10.886,5.705,16.311s5.338,12.673,5.686,12.021
	c0.347-0.651,4.296,11.022,8.505,15.362c4.21,4.339,16.316,17.401,21.351,22.001c5.034,4.601,9.417,22.566,10.936,24.083
	c1.518,1.519,7.896,24.519,8.115,25.776c0.216,1.259,2.689,16.446,2.473,17.576c-0.217,1.127,3.428,9.678-8.766,15.621
	c-8.067,3.934-5.67,8.281-4.141,10.086c2.193,0.693,13.021,5.146,23.668,3.105c13.365-2.559,17.314-10.111,18.313-12.019
	c0.997-1.911-2.388-57.454,0.563-61.144c0,0,2.508-13.023,3.762-19.533c13.775,0,23.898-1.944,37.104-1.945
	c9.129-2.805,18.26-5.613,27.389-8.418c0.216,0.03,0.434,0.059,0.648,0.091c0,9.194,30.719,37.685,30.719,42.563
	c0.125,0.092,0.248,0.186,0.371,0.277c2.59,4.164,8.718,9.473,11.309,13.637c0.779,11.479-7.604,23.381-7.604,26.918
	c-7.567,0-17.035,9.864-16.598,12.789c-2.018,1.863,21.664,1.967,31.41,1.967c5.39,9.324,9.91,2.539,24.23,5.39
	c2.724,0.541,4.719-2.222,6.014-4.999c1.295-2.774,3.146-5.827,5.275-7.77c2.127-1.945,4.348-3.889,5.182-7.033
	c0.832-3.146,0.461-5.273,1.109-7.678c0.648-2.408,0.74-4.166,2.59-3.148c1.852,1.018,5.922,3.331,7.125,7.401
	c1.203,4.072,6.664,4.813,7.866,5.367c1.203,0.554,6.754-2.035,9.529-12.77c2.776-10.731,4.256-24.241,4.164-31.829
	C416.214,333.727,414.271,330.486,413.901,324.564z M371.538,369.79c-0.908,5.196-4.379,4.967-2.63,10.21
	c1.524,4.57-10.248,10.407-13.724,12.016c-5.525,2.556-7.838-1.092-7.838-4.227s0.26-5.416,5.127-11.602
	c4.865-6.188,3.049-10.457,3.791-19.445c0.742-8.992-0.084-5.039,0.247-9.494c0.328-4.453-2.019-12.826,7.392-3.748
	c3.861,3.726,5.031,5.195,6.268,8.496C371.409,355.295,372.445,364.596,371.538,369.79z M384.733,327.582
	c-1.896-2.557-3.877-5.773-6.35-10.641c-2.475-4.865-1.896-7.174,0.578-12.453c2.473-5.278,0.575-0.741,3.793-4.453
	c3.217-3.711,1.73-2.557,2.309,1.32c0.578,3.875,0.824,0.989,2.723,6.763c1.896,5.771,0.494,10.722,1.154,16.659
	C389.6,330.717,386.63,330.139,384.733,327.582z"/>
<path d="M-55.1,276.501"/>
</svg>
