<?xml version="1.0" encoding="utf-8"?>
<!-- Generator: Adobe Illustrator 16.0.0, SVG Export Plug-In . SVG Version: 6.00 Build 0)  -->
<!DOCTYPE svg PUBLIC "-//W3C//DTD SVG 1.1//EN" "http://www.w3.org/Graphics/SVG/1.1/DTD/svg11.dtd">
<svg version="1.1" id="Layer_1" xmlns="http://www.w3.org/2000/svg" xmlns:xlink="http://www.w3.org/1999/xlink" x="0px" y="0px"
	 width="500px" height="500px" viewBox="0 0 500 500" enable-background="new 0 0 500 500" xml:space="preserve">
<path fill-rule="evenodd" clip-rule="evenodd" d="M7,414c0,0,65.134-127.302,192-133c6.625-0.297-6.626-18.698,95-109
	c3.008-2.673-0.526,10.285,4,13s5.141-1.308,10,3s-1.766,10.229,7,11s10.327-7.363,15-1s6,10,6,10s13.284-78.958-104-74
	c-22.011,0.931-67,85-67,85l-11-4c0,0-13.467-7.452-15-11c-16.911-39.144-15.022-4.432-18-22c-2.634-15.539-11.949-18.634-12-19
	c-2.91-20.988-8.027-14.501-9-21c-4.971-33.2-13.975-12.267-9-24c3.931-9.271-3-20-3-20s100.491-25.611,125-22
	c1.876,0.276-1.841-40.267,72-63c4.146-1.277,43,25,43,25s3.625-17.387,35-1c31.375,16.387,21.236,13.039,22,15s71.852,5.231,94,92
	s1.184,120.438-9,159s-50.193,104.387-114,124s-112,26-112,26l41,26c0,0,15.676,7.32,0,11s-14.392,7.932-25-1s-40-33-40-33
	s-139.297,5.399-141,1s0.462,18.07-18,23s-3.956-5.637-1-4s11.1-15.032,8-18s-36.772-2.017-44-11s-7.932-8.023-6-13
	s-5.572-6.949-8-9C2.674,418.814,7,414,7,414z"/>
</svg>
