<?xml version="1.0" encoding="utf-8"?>
<!-- Generator: Adobe Illustrator 16.0.0, SVG Export Plug-In . SVG Version: 6.00 Build 0)  -->
<!DOCTYPE svg PUBLIC "-//W3C//DTD SVG 1.1//EN" "http://www.w3.org/Graphics/SVG/1.1/DTD/svg11.dtd">
<svg version="1.1" id="Layer_1" xmlns="http://www.w3.org/2000/svg" xmlns:xlink="http://www.w3.org/1999/xlink" x="0px" y="0px"
	 width="355px" height="338px" viewBox="0 0 355 338" enable-background="new 0 0 355 338" xml:space="preserve">
<path fill-rule="evenodd" clip-rule="evenodd" d="M279,268c19.424-12.584,38.406-26.77,49-32s16.316-10.124,19-20s0.103-17.639-6-23
	s-10.997-4.667-12-6s-0.257-2.563-1-7s-3.504-10.662-2-11s3.899,0.367,8,1s22.942-6.404,15-21s-5.518-7.82-14-17
	s-23.094-23.469-36-35c-32.613-29.141-38.464-19.881-47-28c-12.656-12.038-18.416-14.375-29-17s-12.98-1.318-14,0s-6.772,2.928-14,2
	s-22.678-1.185-29-5s-29.973-17.236-37-21s-12.594-7.032-14-7s0.818-6.041-12-12S81.533,3.263,76,5s-7.405,2.869-13,6
	s-9.154,4.651-16,5s-12.235-0.786-21,2s-14.61,9.356-16,11s-0.364,7.625-1,14s1.243,10.647,4,18s16.627,29.186,23,37
	s16.566,16.137,18,19s-0.894,2.123-7,2c-6.106-0.123-9.382,0.645-16,1s-9.828-1.778-15,2s-9.918,11.019-2,9s5.95-2.256,11-3
	s5.86,0.525,11,1s9.846,0.568,7,2s-3.818,0.625-9,3s-11.454,2.97-13,6s-6.35,6.344-9,9c-2.65,2.656-4.639,2.689-5,6s4.807,8.358,9,3
	s7.049-7.973,13-10s23.063-6.254,16,4s-3.183,6.381-5,13s-1.662,11.029-1,14s5.728,8.888,8,1s-0.244-9.486,2-13s3.116-7.381,7-10
	s6.519-5.452,10-7s4.33-3.656,6-1c1.67,2.656,3.951,6.964,7,9s3.747-1.619,5,6s2.15,16.902,7,13s15.567,29.672,16,31
	s7.586,14.026-4,20s-6.936,3.723-10,3s-2.717-3.959-4,0s0.429,4.893-4,8s-3.713,3.462-9-3s-9.102-6.58-12-8s-8.798-1.424-4,4
	s5.998,8.746,7,13c1.002,4.254,7.945,8.703-6,5s-14.529-6.22-22-11s-7.771-6.784-16-8s-18.539-0.149-14,4s5.632,5.386,11,6
	s7.267,1.802,11,7s5.613,7.19,8,11s7.632,5.015-3,7s-12.364,1.304-20,3s-11.188,2.417-12,6s1.532,8.17,8,6s9.627-4.294,20-2
	s12.188,0.312,22,5s12.254,6.08,22,6s16.378-1.844,26-7s19.487-18.69,27-24s19.891-16.158,19-27s-3.384-18.617-3-22
	s-0.735-6.532,5-2s6.958,5.032,13,7s9.36,3.321,13,4s6.218,0.723,0,6s-9.953,8.893-14,13s-8.617,7.816-12,12s-5.195,7.409-7,9
	s-2.091,1.205-7,3s-1.991,3.986,0,4s2.966-1.464,1,1s-3.57,5.1-4,6s0.752-3.175-6-2s-11.03,0.417-10,4s1.359,5.156,6,4
	s9.663-2.076,9-1s-0.522,2.488-7,4s-7.779,0.023-16,2s-11.836,3.369-12,6s5.378,3.615,10,3s8.155-1.385,16-1s16.174,3.425,4,4
	s-21.618,0.714-27,2s-23.652,1.539-33,4s-8.519,1.434-13,7s-3.348,14.187,2,10s6.358-3.595,13-5s5.454-1.609,18-2s18.07-0.348,28,0
	s10.762,2.145,17,1s15.374-0.249,6,3s-8.276,2.589-14,6s-10.352,12.182-2,11s10.369-5.425,17-7s43.863-12.87,51-14
	s19.755-7.476,27-8s9.086-0.793,11-3s1.186-3.082,5-4S259.576,280.584,279,268z"/>
</svg>
