<?xml version="1.0" encoding="utf-8"?>
<!-- Generator: Adobe Illustrator 16.0.0, SVG Export Plug-In . SVG Version: 6.00 Build 0)  -->
<!DOCTYPE svg PUBLIC "-//W3C//DTD SVG 1.1//EN" "http://www.w3.org/Graphics/SVG/1.1/DTD/svg11.dtd">
<svg version="1.1" id="Layer_1" xmlns="http://www.w3.org/2000/svg" xmlns:xlink="http://www.w3.org/1999/xlink" x="0px" y="0px"
	 width="230.507px" height="250.014px" viewBox="0 0 230.507 250.014" enable-background="new 0 0 230.507 250.014"
	 xml:space="preserve">
<path d="M78.543,92.661c4.315,2.923,38.146,5.29,43.995,5.012c5.847-0.278,27.705-6.961,45.666-5.569
	c17.959,1.392,27.845,5.151,35.085,11.694c7.239,6.543,16.707,17.542,17.82,25.06c1.113,7.52-0.14,16.847-2.784,18.935
	c-2.646,2.088-3.48-1.392-3.898-3.341s-2.228-4.456-5.013,3.898c-2.783,8.353-4.732,15.453-5.011,19.49
	c-0.278,4.038,0.278,3.76,3.898,12.252c3.619,8.491,5.568,11.137,5.568,11.137s-0.418,26.175,0,33.97
	c0.417,7.796-1.671,13.367-1.671,13.367l-1.671,6.125c0,0-8.074,2.089-11.138,0c-3.062-2.087-3.479-2.227-1.669-6.125
	c1.809-3.898,2.783-18.935,2.783-18.935l0.557-17.821l-16.705-24.504c0,0-2.646-7.1-4.455,1.671
	c-1.811,8.771-2.229,13.783-1.671,14.479c0.557,0.696,1.81,4.872-0.558,9.467c-2.366,4.594-11.137,25.339-12.251,27.288
	c-1.113,1.948-1.671,2.783-1.671,5.568c0,2.784-0.416,4.315-2.227,5.012c-1.81,0.696-1.81,2.645-2.228,3.897
	c-0.417,1.253,2.089,1.671-3.341,2.228c-5.43,0.558-7.936-0.417-9.467-0.557c-1.532-0.139-1.532-2.088-0.558-4.454
	c0.975-2.367,2.367-4.316,4.456-7.797c2.087-3.479,7.238-15.174,9.467-19.491c2.228-4.316,2.923-13.644,2.783-17.264
	c-0.139-3.618-1.81-13.783-1.67-15.035c0.14-1.253-3.063-15.732-3.342-17.264c-0.278-1.531,0.696-5.847-5.012-2.228
	c-5.708,3.62-16.43,7.797-24.505,6.683c-8.074-1.113-12.528,0-16.148-1.671c-3.62-1.67-6.125-2.924-6.125-0.557
	s-0.557,20.744-0.557,26.174s-0.418,17.264,0,22.276c0.417,5.011,2.784,11.694,3.341,14.479c0.557,2.783,1.531,4.872,0.557,6.682
	c-0.974,1.811-0.974,3.342-0.557,5.013c0.417,1.67-2.366,2.505-4.455,3.341c-2.088,0.835-5.708,1.81-7.239,0.557
	c-1.531-1.253-3.48-4.176-2.227-6.125c1.252-1.949,2.088-6.405,2.227-8.91c0.139-2.506,0.835-11.277,0-14.479
	c-0.835-3.202-2.088-8.493-2.784-11.139c-0.696-2.646-1.114-5.012-1.114-5.012s-1.671-4.733-2.785,1.113
	c-1.113,5.848-1.809,12.947-1.67,15.037c0.139,2.089,0.696,12.529,0.557,14.479c-0.139,1.948,0,3.341-1.67,5.568
	c-1.671,2.228-3.759,3.063-4.455,5.569c-0.696,2.505-1.253,4.036-4.455,5.011s-5.151,1.393-6.682,0
	c-1.532-1.392-2.228-2.924,0-5.567c2.227-2.646,4.176-8.354,5.568-11.138c1.392-2.784,1.392-28.959-0.557-33.414
	c-1.949-4.454-1.532-13.782-2.228-17.264c-0.696-3.48-1.532-8.353-2.784-11.137c-1.253-2.785-11.277-10.023-12.251-16.15
	c-0.975-6.125-2.228-8.491-3.341-11.694c-1.113-3.203-9.606-16.706-11.137-21.162c-1.531-4.455-6.683-18.377-6.683-18.377
	l-15.593-0.557c0,0-1.531,2.506-3.898,2.228c-2.367-0.279-5.568-1.393-7.239-2.228c-1.671-0.835-3.202,0.835-5.569-0.557
	c-2.367-1.392-5.708-5.708-6.125-7.239c-0.417-1.532,3.62-10.72,8.91-12.251c5.291-1.531,4.734-3.62,6.683-5.568
	c1.949-1.949,5.012-7.24,5.569-8.91c0.557-1.67,5.429-4.733,6.125-5.569c0.696-0.835,8.214-16.985,8.353-17.821
	s-3.063-1.392-1.114-3.341c1.949-1.949,3.759-2.785,4.455-3.342c0.696-0.557-2.088-2.088-1.114-3.341
	c0.975-1.253,1.81-2.646,2.785-2.785s5.012-0.696,5.569-3.341c0.557-2.646-3.063-5.569,1.114-7.24
	c4.176-1.67,4.315-0.696,6.125-1.67c1.81-0.975,5.847-5.569,7.239-6.683c1.393-1.114,2.785-0.975,6.126-1.114
	s8.91-2.088,9.467-3.898c0.557-1.81,2.506-2.785,4.455-2.785s5.708,2.646,7.239,2.785c1.531,0.139,7.239-1.532,9.467-2.228
	c2.228-0.696,2.645-0.279,5.012,1.114c2.367,1.392,2.645,2.784,5.568,2.227c2.924-0.557,5.012-0.835,6.683-0.557
	c1.67,0.279,2.227,1.949,3.34,3.342c1.114,1.392,0.975,3.341,3.342,3.898c2.367,0.557,5.43,0.557,6.682,1.114
	c1.253,0.557,2.506,2.228,2.785,3.898c0.278,1.67,0.695,2.785,0.557,3.341c-0.14,0.557,5.43,7.1,5.569,14.479
	c0.139,7.378-0.558,6.822-2.785,3.341s-4.455-8.214-6.126-10.024c-1.671-1.81-11.694-5.43-16.148-6.125
	c-4.455-0.696-15.455-2.088-20.605-2.227c-5.151-0.14-8.632-1.671-14.478,0.557c-5.847,2.227-10.859,4.455-12.252,5.569
	c-1.392,1.114-4.316,6.543,1.113,2.784c5.43-3.759,1.393-3.063,3.342-3.341c1.949-0.278,2.923,0.139,5.568,0.557
	c2.645,0.417,4.455-1.532,6.126-2.228c1.67-0.696,2.645-2.366,5.012-1.114c2.367,1.253,3.063,2.367,5.012,3.342s2.923,0.975,5.568,0
	s2.088-2.924,4.455-0.557s4.594,4.594,5.568,5.012c0.975,0.418,1.532,1.532,4.456,1.114c2.924-0.417,4.454-0.835,5.011,1.114
	c0.557,1.949,1.253,2.228,1.671,4.455c0.417,2.227,1.81,3.341,4.455,3.898s3.759,1.949,3.34,3.898
	c-0.417,1.949-0.278,2.785,0.557,4.455c0.835,1.67,2.924,6.96,3.342,10.023c0.417,3.063,0.417,5.291,0,6.683
	c-0.418,1.393-1.811,3.202-2.785-3.898c-0.973-7.1-5.568-8.91-7.795-11.138c-2.228-2.227-13.088-8.771-17.821-9.466
	c-4.733-0.696-12.251-1.81-19.492-1.114c-7.24,0.696-10.72,1.532-17.264,3.898c-6.543,2.367-10.72,3.48-12.251,5.012
	s-1.949,3.063-2.227,3.898c-0.279,0.835-1.393,5.012,2.784,3.341c4.177-1.67,4.316-3.341,6.126-2.784
	c1.81,0.557,2.784,2.505,1.114,5.012c-1.671,2.506-4.176,5.151-1.114,7.239c3.063,2.088,5.847,4.873,7.239,6.683
	c1.392,1.81,4.733,2.784,5.012,5.569c0.278,2.784,1.671,4.176,2.785,5.568S74.226,89.737,78.543,92.661z"/>
<path fill="none" d="M96.505,98.505"/>
</svg>
