<?xml version="1.0" encoding="utf-8"?>
<!-- Generator: Adobe Illustrator 16.0.0, SVG Export Plug-In . SVG Version: 6.00 Build 0)  -->
<!DOCTYPE svg PUBLIC "-//W3C//DTD SVG 1.1//EN" "http://www.w3.org/Graphics/SVG/1.1/DTD/svg11.dtd">
<svg version="1.1" id="Layer_1" xmlns="http://www.w3.org/2000/svg" xmlns:xlink="http://www.w3.org/1999/xlink" x="0px" y="0px"
	 width="500px" height="500px" viewBox="0 0 500 500" enable-background="new 0 0 500 500" xml:space="preserve">
<circle fill="#E57D25" cx="250" cy="250" r="250"/>
<path fill-rule="evenodd" clip-rule="evenodd" fill="#3C2415" fill-opacity="0.2" d="M500,250.001c0-2.938-0.069-5.858-0.17-8.771
	L322.147,63.547L246.2,115.822l64.583,45.726l-70.239,58.454l-2.593,43.134l18.384,52.798l25.457,133.879l39.774,39.774
	C424.759,458.807,500,363.198,500,250.001z"/>
<path fill-rule="evenodd" clip-rule="evenodd" d="M248.31,129.231c0,0-15.611-2.862-7.566-12.608
	c8.047-9.744,14.713-13.817,15.969-15.129c1.258-1.311,7.861-5.294,8.826-5.462c0.962-0.167,3.034-3.316,3.783-3.363
	c0.744-0.046,2.532-3.931,5.041-4.202c2.508-0.271,16.389-11.348,16.389-11.348s3.064-1.691,4.205-1.68s4.578-3.749,5.883-4.623
	c1.303-0.873,5.436-6.131,8.824-7.983c3.391-1.854,8.289-3.225,11.348-0.001c3.057,3.225,3.244,8.994,1.259,11.346
	c-1.983,2.353-4.843,5.866-9.243,7.567c-4.403,1.699-11.033,2.993-11.768,2.94c-0.734-0.054-5.012,4.8-9.246,5.885
	c-4.235,1.083-7.174,3.433-8.406,4.201c-1.229,0.768-9.475,5.05-11.346,7.986c-1.871,2.936-3.629,4.318-5.883,5.462
	c-2.252,1.144-10.611,7.675-11.346,8.406c-0.735,0.732-2.422,1.541,0.42,3.782c2.841,2.241,25.267,12.367,26.474,13.027
	c1.208,0.662,9.247,5.463,9.247,5.463s4.975,3.134,8.406,0.84c3.428-2.294,4.256-1.715,5.461-1.679
	c1.207,0.032,2.822-2.34,7.144-1.261c4.325,1.078,7.86,2.103,10.087,2.94c2.229,0.838,8.152,5.145,1.682,5.044
	c-6.473-0.102-9.031-0.33-10.506-0.001c-1.473,0.331-4.311,0.07-0.842,2.522c3.471,2.452,6.775,4.601,7.986,7.144
	c1.209,2.543,1.479,3.354,2.103,4.622c0.618,1.271,2.021,2.882,2.94-0.839c0.918-3.723,0.391-5.468,1.68-7.565
	c1.291-2.097,2.879-3.289,4.622,1.681c1.747,4.97,1.597,7.619,2.103,10.507c0.508,2.887,0.762,4.419-3.361,8.405
	c-4.125,3.984-7.381,6.193-6.725,13.027c0.72,7.518,3.384,12.53,5.043,16.809c1.662,4.282,1.236,5.211,4.201,7.986
	c2.967,2.776,4.01,3.074,4.624,5.461c0.613,2.39-0.382,4.22,1.681,5.464c2.063,1.244,4.604,1.347,6.307,0
	c1.697-1.348,5.279-4.117,8.406-4.624c3.122-0.502,3.094,0.53,4.619-0.419c1.523-0.947,6.751-3.676,8.406-4.201
	c1.65-0.526,3.767-0.1,5.463-0.422c1.697-0.32,20.984-12.004,23.113-11.347c2.127,0.658,3.771,1.011,8.404-0.839
	c4.635-1.851,9.988-3.819,14.709-2.943c4.721,0.876,12.48,3.804,5.887,10.085c-4.623,4.399-8.906,5.365-9.246,5.044
	c-0.346-0.32-5.971,1.546-8.828,1.263c-2.855-0.286-5.576-2.345-7.563-1.263c-1.99,1.083-4.824,2.75-7.567,2.941
	c-2.739,0.193-7.435,1.79-9.243,1.261c-1.813-0.526-4.016,1.469-5.885,2.521c-1.867,1.057-2.984,0.713-5.883,1.262
	c-2.896,0.551-3.877,2.095-6.305,2.941c-2.426,0.849-1.803,0.618-5.461,0.841c-3.66,0.225-3.779,2.866-7.986,4.624
	c-4.207,1.757-10.619,9.933-16.811,3.361c-6.19-6.575-6.106-5.836-7.984-11.767c-1.879-5.931-2.641-11.49-4.203-16.81
	c-1.564-5.321-2.846-9.383-4.203-11.348c-1.355-1.963-3.455-6.259-5.881-1.26c-2.389,4.911-2.889,7.663-4.205,8.825
	c-1.314,1.162-6.831,4.148-8.824,5.464c-1.994,1.314-8.434,5.677-10.506,6.302c-2.072,0.628-5.125,1.21-8.406,0.001
	c-3.279-1.208-5.189-4.049-8.824-2.521c-3.637,1.528-3.689,1.405-4.202,5.463c-0.514,4.058,0.716,2.31-1.683,5.885
	c-2.395,3.572-4.914,3.679-2.52,5.461c2.392,1.784,3.709,0.739,6.725,1.261c3.012,0.523,3.557,0.225,7.982,2.102
	c4.426,1.877,6.363,2.196,11.768,2.521c5.404,0.328,6.26-1.501,9.666,1.681s2.188,4.073,4.201,5.465
	c2.012,1.39,4.104,1.421,4.623,3.781c0.523,2.36-0.553,4.894,2.521,5.464c3.076,0.57,3.338,0.309,5.043,1.68
	c1.704,1.373,2.512,0.755,3.784,2.521c1.271,1.769,1.188,3.461,0.419,5.045c-0.771,1.582-0.277,3.436-2.521,2.941
	c-2.246-0.494-3.762-2.363-4.623-2.941c-0.861-0.576-4.203-1.68-4.203-1.68s-3.127-3.811-3.781-3.783
	c-0.654,0.024-5.813-2.761-7.984-7.146c-2.174-4.385-10.045,0.521-11.346-0.419c-1.303-0.94-20.729-2.324-19.332,0.419
	c1.396,2.744,6.281,7.888,7.564,8.827c1.283,0.938,3.881,3.76,4.201,6.723c0.322,2.963,3.154,4.186,5.465,5.462
	c2.31,1.278,9.234,7.878,11.766,10.086c2.532,2.21,6.08,6.722,6.305,8.407c0.227,1.688,1.037,3.045,2.521,4.203
	c1.482,1.157,1.986,0.421,1.68,4.621c-0.303,4.201,0.381,6.32,2.521,8.825c2.142,2.506,11.496,14.745,13.029,15.969
	c1.533,1.225,4.471,2.015,4.623,5.886c0.15,3.871-0.332,5.146,1.26,6.723c1.59,1.576,0.979,3.735,0.421,5.464
	c-0.557,1.728,0.581,3.003-0.421,4.201c-1.002,1.199-4.523,2.883-5.463,0.422c-0.938-2.464-0.094-2.164-0.84-4.202
	c-0.746-2.04-2.029-1.555-2.522-3.364c-0.491-1.81-0.349-1.868-0.421-3.78c-0.07-1.918-2.33-1.955-3.361-4.204
	c-1.029-2.249-7.381-13.514-7.984-15.548c-0.605-2.036-5.125-10.829-7.566-11.348c-2.436-0.516-3.289-1.934-3.781-2.521
	c-0.492-0.586-6.621-3.533-7.983-5.464c-1.362-1.927-12.379-18.279-13.028-21.011c-0.646-2.73-3.617-3.527-6.723-5.884
	c-3.107-2.356-5.586-6.71-12.609-5.884c-7.021,0.826-7.145,1.26-7.145,1.26s1.691-0.172,0.421,5.043
	c-1.269,5.217,3.411,8.888,4.202,10.507c0.791,1.62,2.68,3.379,1.68,7.144c-0.992,3.766,0.666,10.51,2.104,15.131
	c1.438,4.617,5.77,17.326,6.305,18.911c0.533,1.584,1.301,8.532,0,12.187c-1.303,3.652,4.137,19.277,3.359,20.592
	c-0.773,1.313,2.123,0.907,2.943,10.505c0.818,9.599,2.941,12.187,2.941,12.187s6.066,26.506,6.725,28.158
	c0.656,1.657,1.021,5.94,0.84,7.143c-0.184,1.207,5.463,20.594,5.463,20.594l-0.84,7.985c0,0,4.031,11.631,4.203,13.026
	c0.172,1.398-3.827,4.586-4.202,5.046c-0.38,0.457-2.761,0.007-3.784-2.523c-1.023-2.528-3.021-3.265-2.939-8.404
	c0.08-5.141,0.179-8.688-0.842-13.448c-1.023-4.76-6.139-32.988-7.145-35.723c-1.006-2.732-13.384-51.544-13.027-52.95
	c0.358-1.405-1.248-12.28-3.362-15.969c-2.112-3.689-9.897-22.858-9.245-33.199c0.651-10.343-3.055-10.385-3.363-11.768
	c-0.305-1.383-2.182-5.071-3.781-6.304c-1.601-1.235-6.484-3.803-7.984-4.623c-1.5-0.823-2.672-3.695-4.623-4.203
	c-1.953-0.508-1.832,0.307-3.783,1.682s-2.18,1.832-3.361,2.523c-1.182,0.687-1.783,1.498,0.84,3.357
	c2.623,1.865,12.465,12.789,12.188,18.073c-0.275,5.286,2.268,12.694-0.84,22.272c-3.109,9.578-0.906,13.076-5.463,19.753
	c-4.558,6.674-5.163,3.883-9.666,10.086c-4.504,6.201-4.012,7.429-7.984,9.245s-1.23,2.116-5.463,5.043
	c-4.233,2.929-5.609,3.556-11.348,3.783c-5.738,0.226-8.914-0.794-12.188-3.363c-3.271-2.567-4.821-4.676-5.882-7.564
	c-1.061-2.887-4.658-5.76-5.885-7.563c-1.225-1.803-3.746-10.542-3.781-16.811s-2.477-7.666-3.361-13.446
	c-0.887-5.781,4.447-28.605,9.666-34.041c5.217-5.438,12.467-12.762,19.75-12.609c7.283,0.15,6.297-0.465,6.305-2.102
	c0.007-1.635,0.955-5.74,2.102-7.143c1.145-1.402,2.553-2.214,3.361-2.942c0.807-0.73,2.454-2.024-0.42-2.941
	c-2.878-0.92-6.48-2.8-8.405-8.826c-1.923-6.024-2.462-7.44-4.623-12.187c-2.161-4.748-4.22-8.807-7.565-2.943
	c-3.344,5.864-7.299,11.843-10.505,15.549c-3.206,3.707-8.265,5.77-9.247,6.306c-0.98,0.532-18.068,17.228-18.068,17.228
	s-23.824,9.906-24.375,11.348c-0.551,1.44-4.869-1.225-5.463-0.002c-0.596,1.227-18.988,11.078-20.594,11.768
	c-1.604,0.69-4.822,1.471-6.723,0.002c-1.902-1.471-3.42-1.859-3.363-4.203s2.53-3.771,5.885-4.625
	c3.354-0.852,8.768-1.658,13.027-3.358c4.258-1.704,8.197-2.769,10.926-5.044c2.73-2.277,0.986-3.104,5.043-4.203
	c4.059-1.097,13.301-2.51,15.971-5.043c2.669-2.534,8.852-4.795,12.186-7.985c3.336-3.189,9.554-6.396,10.928-10.084
	c1.373-3.688,5.43-6.586,9.666-11.347c4.234-4.761,11.797-13.943,12.607-15.129c0.808-1.188,0.436-3.494,6.723-1.26
	c6.291,2.232,13.699,2.926,17.23,10.086c3.531,7.158,4.611,9.557,5.043,10.085c0.434,0.528,4.229-3.318,5.463-4.203
	c1.234-0.884,3.361-7.983,3.361-7.983l-1.68-6.305c0,0-24.254-19.695-25.635-32.36c-1.381-12.664-9.182-10.921-13.869-14.708
	c-4.686-3.788-12.874-9.449-14.288-10.507c-1.413-1.056-4.737-9.347-5.884-10.926c-1.145-1.578-5.195-3.638-6.302-7.145
	c-1.108-3.505-1.181-7.029-5.464-10.506c-4.283-3.476-3.379-5.798-5.886-7.984c-2.503-2.187-5.479-3.508-5.882-6.304
	c-0.402-2.796-3.443-5.77-4.623-7.144c-1.18-1.375-1.222-1.676,0.42-3.361c1.643-1.687,4.104-2.745,5.463,0
	c1.363,2.742,2.809,7.91,4.622,8.403c1.815,0.495,2.247-0.874,4.624,2.942c2.377,3.816,2.117,6.691,4.623,7.145
	c2.506,0.451,4.426,1.04,5.463,4.201c1.039,3.162,2.59,2.774,4.623,5.885c2.032,3.11,8.248,14.535,9.246,14.709
	c0.995,0.172,3.882,0.841,5.463,5.042c1.58,4.201,9.664,10.506,9.664,10.506s10.854,8.152,12.608,10.505
	c1.557,2.09,5.202,6.968,6.042,7.66c0.873,0.717,22.87,29.247,22.115,24.279c-0.756-4.967-3.055-10.667-0.84-15.126
	c2.214-4.464,0.701-4.5,0-5.883c-0.703-1.387-1.811-9.262-3.361-10.507c-1.555-1.248,2.52-23.535,2.52-23.535
	s-2.721-6.278-2.1-10.087c0.617-3.805,0.689-9.852,1.679-12.606c0.99-2.755-2.94-16.388-2.94-16.388s1.408-6.253-0.842-8.407
	c-2.246-2.151-3.479-1.791-3.781-6.723c-0.301-4.933-1.539-9.343,5.885-5.463c3.534,3.877,3.187,7.601,3.361,7.144
	c0.174-0.457,3.01,9.481,2.941,10.506c-0.069,1.025,2.711,11.016,2.943,12.608c0.229,1.593,0.91,11.656,0.84,12.187
	c-0.071,0.528,2.482,13.219,1.258,16.81c-1.221,3.593,0.842,14.71,0.842,14.71s0.938,13.511,0.842,15.128
	c-0.097,1.617-0.336,4.317,0,5.884c0.336,1.566,1.563,2.712,4.621,4.624c3.059,1.911,4.789-2.457,8.406-3.784
	c3.617-1.326,5.332,0.07,7.984,1.262c2.652,1.192,3.363,1.261,3.363,1.261s2.824-5.938,4.621-4.624
	c1.799,1.315-4.59-11.992,1.682-17.649c6.271-5.66,6.588-5.151,7.564-7.565c0.976-2.415,4.973-8.879,7.564-10.505
	c2.592-1.628,5.046-2.914,6.303-3.784c1.258-0.869,2.186-1.318-1.68-3.362c-3.87-2.042-18.862-7.267-22.273-9.245
	C252.46,129.775,248.31,129.231,248.31,129.231z"/>
</svg>
