<?xml version="1.0" encoding="utf-8"?>
<!-- Generator: Adobe Illustrator 16.0.0, SVG Export Plug-In . SVG Version: 6.00 Build 0)  -->
<!DOCTYPE svg PUBLIC "-//W3C//DTD SVG 1.1//EN" "http://www.w3.org/Graphics/SVG/1.1/DTD/svg11.dtd">
<svg version="1.1" id="Layer_1" xmlns="http://www.w3.org/2000/svg" xmlns:xlink="http://www.w3.org/1999/xlink" x="0px" y="0px"
	 width="500px" height="500px" viewBox="0 0 500 500" enable-background="new 0 0 500 500" xml:space="preserve">
<circle fill="#4EBA6F" cx="250" cy="250" r="250"/>
<path opacity="0.3" fill="#603913" d="M151.151,370.354l128.48,128.479c53.518-6.51,105.334-30.301,146.412-71.378
	c44.471-44.47,68.676-101.526,72.633-159.703L386.972,155.041L195.5,359L151.151,370.354z"/>
<path fill-rule="evenodd" clip-rule="evenodd" fill="#603913" d="M155.354,154.567c20.786,0.735,18.946,2.208,28.511-4.599
	c9.565-6.805,19.499-12.324,31.271-12.876c11.771-0.552,19.313,0.368,32.19,6.438c12.875,6.07,16.922,7.91,30.35,7.357
	c13.428-0.551,3.865-2.023,34.029-3.678c30.167-1.656,21.154-4.6,47.826,1.838c26.671,6.438,25.568,2.392,39.547,16.555
	c13.98,14.163,27.225,29.799,33.111,51.504c5.885,21.706,2.574,20.418,1.838,23.913c-0.734,3.494-2.758,4.23-2.758,15.635
	c0,11.404-5.52,16.738-4.6,25.751c0.922,9.015-2.574,5.335-2.759,12.878c-0.185,7.541-2.942,7.908-2.759,12.875
	s-0.92,4.967,2.759,9.197c3.68,4.23,3.312,4.23,3.679,7.357c0.369,3.127-0.186,1.84,6.438,8.277
	c6.622,6.439,7.727,6.439,6.438,13.797c-1.287,7.357-5.518,19.498-9.195,25.752c-3.68,6.254-3.865,7.908-16.556,8.277
	c-12.691,0.367-6.808,4.23-19.313,0.92c-12.508-3.311-5.703-4.23-2.76-8.277s1.288-1.288,7.357-6.439
	c6.07-5.148,2.943-5.885,0.92-8.277c-2.023-2.391-3.863-1.287-11.956-3.678s-2.392,1.287-6.438-3.679
	c-4.048-4.968-3.128-4.415-6.438-6.438s-5.15-3.127-4.598,0c0.551,3.127,0.734,2.943,1.838,4.598
	c1.104,1.656,1.104,1.473-0.92,1.841c-2.023,0.368-1.655-0.368-0.918,1.839c0.734,2.206,0.734,2.206,0.918,3.68
	c0.186,1.47-0.551,0.184-1.839,1.838c-1.288,1.656-1.655,2.209,0.001,3.68c1.654,1.471,1.471,2.391,0.92,5.518
	c-0.553,3.129,2.758,6.623-9.199,7.357c-11.955,0.736-41.201,3.496-50.583,0.92c-9.382-2.574-13.245-2.023-7.358-9.197
	c5.888-7.172,1.656-4.414,9.197-6.438c7.543-2.023,4.414,0,12.877-2.76c8.461-2.758,6.254-3.678,3.678-7.357
	c-2.575-3.678-3.679-3.494-4.599-5.518c-0.919-2.023-0.919-1.84-0.919-1.84s-1.165,1.217-0.92-2.76
	c0.244-3.975-1.053,0.756-1.84,0.92c-0.786,0.166-0.702,1.715-1.84,0c-1.137-1.713-0.649-1.457-0.92-2.758
	c-0.269-1.303,0.152-2.9-0.918-1.84c-1.072,1.061-0.246,0.623-0.92,0.92s-1.807,3.877-1.84,0c-0.035-3.877-0.553-3.729-0.92-2.76
	s-0.443,1.928-1.84,1.84c-1.396-0.088-1.709-1.623-1.84-2.76c-0.128-1.137,0.131-3.743,0-5.518c-0.128-1.773-1.789-0.877-2.759-2.76
	c-0.969-1.883-1.509-4.723-1.839-9.197c-0.331-4.475,0.226-5.9,0-10.117c-0.227-4.215-0.807-5.422-2.759-2.757
	c-1.952,2.663-1.841-2.762-1.841-2.762l-2.758,3.681l-0.921-4.6l-5.517,2.76l-0.92-5.52h-1.84l-0.92,3.68l-2.759-3.68l-1.841,2.76
	l-2.759-6.438l-1.839,1.841l-1.84-2.76l-0.919,1.841l-2.759-1.841l-2.76,0.92c0,0-5.061,11.234-8.277,25.752
	s-4.885,13.088-4.599,14.716c0.285,1.626-0.077,2.925-0.001,4.599c0.077,1.672-1.33,2.047-3.679,4.598
	c-2.347,2.551-3.653,6.832-3.679,6.438c-0.023-0.393,1.367,1.543-0.919,3.68c-2.287,2.137-3.611,5.736-3.681,10.117
	c-0.067,4.381,0.069,7.35,0.002,10.117c-0.068,2.766,2.54,6.563-9.198,6.438c-11.736-0.125-42.311,1.078-45.985,0.92
	c-3.674-0.158-6.19-2.191-7.358-3.681c-1.167-1.485-0.245-2.778-7.356-2.757c-7.113,0.02-11.34,1.021-16.555,0
	c-5.217-1.023-6.906-0.883-8.278-1.84s0.597-11.912,11.036-12.877c10.44-0.965,8.181-0.105,13.797-1.84
	c5.615-1.732,7.469-2.641,6.438-6.438s-3.679-4.598-3.679-4.598l-0.921-4.6l-2.758,0.92l0.92-6.438l1.839-3.68l-0.92-1.838
	l-2.759,1.838v-4.598c0,0,1.492-5.664,1.84-5.52c0.347,0.146-1.84-1.838-1.84-1.838s1.062-6.15,0.918-6.439
	c-0.14-0.287-2.758-1.838-2.758-1.838l1.84-7.359l1.84-3.678l-0.921-1.84l-3.679,3.68l-0.92,0.92l1.84-8.277l0.92-12.877
	c0,0-11.801-8.273-12.877-9.197c-1.074-0.924-3.588-18.158-11.956-20.234c-8.366-2.074-7.356-3.678-7.356-3.678l-2.76,0l-0.92,1.84
	l-1.839-2.76l-2.759,2.76l-1.84-0.92l-1.84,0.919l-2.76-2.759l-2.759,2.759l-5.519-4.599c0,0-0.451,2.199-0.918,2.759
	c-0.469,0.56-15.171-8.627-20.235-9.198c-5.063-0.569-6.437,0.92-6.437,0.92l-0.922,1.839l-0.918-2.759l-1.84,0.92l-2.76,2.758
	l-0.92-0.919l-0.918-2.759l-1.842,0.92l-0.918,1.84l-2.76-0.92c0,0-1.799-7.365-12.876-8.278
	c-11.077-0.914-11.743-0.864-15.636-3.678c-3.893-2.816-6.699-3.722-3.679-4.599s4.599-2.759,4.599-2.759s-9.958-1.833-11.035-3.678
	c-1.08-1.847-1.203-2.018,0.918-3.68c2.123-1.663,1.568-2.097-0.918-3.679c-2.488-1.583-2.746-0.717-4.6-3.679
	c-1.854-2.963-1.469-3.915,4.598-6.438c6.068-2.524,19.547-8.844,21.154-10.118c1.606-1.273,2.76-1.838,2.76-1.838v-5.519
	c0,0,4.135-7.227,14.715-10.117s11.559-7.615,11.957-8.277c0.396-0.664,4.706-9.204,6.438-11.037
	c1.73-1.833,8.449-3.606,11.037-0.92c2.588,2.686,5.436,4.737,6.438,4.598c1.001-0.14,4.599,0,4.599,0s1.655-1.818,2.759-1.839
	c1.104-0.021,6.467-0.762,7.358,0c0.893,0.762,1.979,1.874,3.679,1.839c1.699-0.034,4.598-4.312,16.555-4.599
	C159.954,154.281,134.569,153.833,155.354,154.567z"/>
<path fill="#8B5E3C" d="M1208.5,474"/>
</svg>
