<?xml version="1.0" encoding="utf-8"?>
<!-- Generator: Adobe Illustrator 16.0.0, SVG Export Plug-In . SVG Version: 6.00 Build 0)  -->
<!DOCTYPE svg PUBLIC "-//W3C//DTD SVG 1.1//EN" "http://www.w3.org/Graphics/SVG/1.1/DTD/svg11.dtd">
<svg version="1.1" id="Layer_1" xmlns="http://www.w3.org/2000/svg" xmlns:xlink="http://www.w3.org/1999/xlink" x="0px" y="0px"
	 width="500px" height="500px" viewBox="0 0 500 500" enable-background="new 0 0 500 500" xml:space="preserve">
<circle fill-rule="evenodd" clip-rule="evenodd" fill="#603913" cx="250" cy="250" r="250"/>
<path opacity="0.2" d="M352.645,300.9c0,0-192.541-81.717-193.66-82.089c-1.119-0.374-114.182,39.177-114.182,39.177l0.604,0.602
	L285.67,497.561c51.508-7.457,101.133-31,140.764-70.631c21.488-21.486,38.24-45.914,50.27-71.984l-24.801-25.313L352.645,300.9z"/>
<path fill-rule="evenodd" clip-rule="evenodd" fill="#E57D25" d="M175.104,161.882c15.145-7.876,62.322-36.633,111.322,5.04
	c31.887,27.113,35.25,48.615,41.691,60.015c3.004,5.312,5.002,18.624,7.332,21.074c2.328,2.45,16.857,28.132,17.867,32.526
	s7.299,6.514,11.453,7.33c4.154,0.818,55.496,11.836,79.256,34.818c23.762,22.984,20.244,24.564,22.908,30.238
	c2.662,5.672,7.641,13.193-4.582,16.033s-21.963,4.293-32.525,4.123c-10.564-0.17-37.424-4.652-56.811-18.326
	c-19.387-13.672-49.938-37.566-49.938-37.566s-25.352-4.789-33.9-2.748c-8.549,2.043-5.744,0.896-9.164,3.205
	c-3.418,2.313-13.703,5.566-21.074,8.248c-7.373,2.68-15.422,5.01-20.156,4.123c-4.735-0.887-9.904,0.129-14.203,2.75
	c-4.297,2.619-5.039,2.291-5.039,2.291l-0.916-4.125c0,0-9.023,3.184-10.08,4.582c-1.055,1.398,0.459-4.58,0.459-4.58
	s-6.473-0.178-7.331,1.373c-0.858,1.549,0.001-5.957,0.001-5.957s-1.826-0.061-4.123,2.75s2.561-7.234,4.581-9.162
	s0.261-3.572-0.458-2.75c-0.72,0.824,15.269-5.563,16.035-5.498c0.766,0.066,4.746-0.807-1.834-4.121
	c-6.578-3.318-22.737-11.498-24.738-12.83c-2.002-1.33-0.904-1.701-4.581,0.918c-3.677,2.617-5.332,4.428-9.163,5.955
	c-3.832,1.527-8.533,3.127-12.369,7.332c-3.836,4.203-9.273,8.561-14.203,9.16c-4.93,0.602-21.531,4.582-21.531,4.582
	s0.222-4.568-0.002-5.041c-0.221-0.469-8.246,2.75-8.246,2.75l-0.916-3.207l-2.291-0.916l4.125-5.039c0,0,3.494-5.264,6.414-5.496
	c2.918-0.234,9.829-1.627,13.742-1.834c3.915-0.207,8.996-3.777,6.872-8.246c-2.123-4.471-3.206-5.039-3.206-5.039
	s-8.328-0.045-13.286,1.373s-6.308,3.352-7.788,4.123c-1.48,0.77-2.07-1.156-2.75-1.375c-0.678-0.217-6.168,0.523-6.413,0.918
	c-0.244,0.395-1.831-2.293-1.831-2.293s-2.891-3.008-1.834-4.123c1.059-1.113,3.738-2.66,5.039-3.205
	c1.303-0.547,2.079-3.307,4.124-3.664c2.045-0.359,9.263-3.109,11.911-4.582c2.647-1.475,4.262-4.77-4.123-4.582
	c-8.384,0.189-12.61,0.482-17.867-0.916c-5.258-1.398-10.65-4.518-17.408-2.748c-6.76,1.768-14.523,3.031-15.578,2.748
	c-1.053-0.285-0.771-1.043-3.206-2.748c-2.437-1.707-1.911-2.434-6.413-1.375c-4.506,1.057-9.169,0.836-11.912-1.832
	c-2.744-2.67-4.125-4.125-4.125-4.125s-5.805-1.557-6.871-3.664c-1.063-2.107-3.246-0.291,0-8.705
	c3.246-8.413,12.27-29.172,18.326-34.359c6.055-5.188,13.188-20.606,35.275-25.197c22.09-4.591,36.37-8.367,43.064-10.996
	C148.811,176.662,159.956,169.758,175.104,161.882z"/>
<path fill="#603913" d="M663.475,111.345"/>
</svg>
