<?xml version="1.0" encoding="utf-8"?>
<!-- Generator: Adobe Illustrator 16.0.0, SVG Export Plug-In . SVG Version: 6.00 Build 0)  -->
<!DOCTYPE svg PUBLIC "-//W3C//DTD SVG 1.1//EN" "http://www.w3.org/Graphics/SVG/1.1/DTD/svg11.dtd">
<svg version="1.1" xmlns="http://www.w3.org/2000/svg" xmlns:xlink="http://www.w3.org/1999/xlink" x="0px" y="0px" width="500px"
	 height="500px" viewBox="0 0 500 500" enable-background="new 0 0 500 500" xml:space="preserve">
<g id="Layer_1">
	<circle fill="#955BA5" cx="250" cy="250" r="250"/>
	<path opacity="0.4" fill="#581B57" d="M477.532,146.293l-52.373-52.258L244.558,224.263l-86.383,121.085l-29.105,63.061l0.83,0.834
		l88.306,88.725c74.114,9.449,151.651-14.27,208.571-71.189C502.624,350.93,519.532,238.477,477.532,146.293z"/>
	<path fill-rule="evenodd" clip-rule="evenodd" fill="#FFDE17" d="M126.573,85.649c18.801,2.031,51.658,23.378,64.865,38.611
		c13.208,15.233,46.857,55.962,50.195,68.727c3.337,12.766,3.018,1.584,3.088,3.088c0.071,1.504,0.477-6.221,2.317-6.177
		c1.84,0.044-0.257-9.562-2.317-16.215c-2.061-6.657-2.301-8.425-6.177-15.445c-3.877-7.021-5.581-9.983-6.95-10.811
		c-1.368-0.83-0.6-1.537-2.317,0.771c-1.716,2.307-1.989,3.871-5.405,3.089c-3.415-0.781-5.139-2.992-4.634-6.949
		c0.508-3.957,4.573-4.885,7.724-3.089c3.148,1.796,6.17,2.74,8.494,5.405c1.687,1.935,7.117,10.216,8.494,14.672
		c1.377,4.457,3.682,14.067,3.861,16.989c0.178,2.922,1.842,8.682,1.544,9.267c-0.298,0.584,3.881,0.604,4.632,0.772
		c0.754,0.167,4.998-25.787,7.724-29.344c2.852-3.72,4.759-9.387,6.179-10.811c1.418-1.425,5.336-6.259,10.037-6.95
		c4.705-0.69,4.987-0.962,6.18,0.773c1.189,1.733,2.129,3.513,0.771,6.177c-1.359,2.663-1.034,3.816-3.86,3.86
		c-2.827,0.044-4.255,0.953-5.405-1.544c-1.153-2.497-1.545-3.088-1.545-3.088s-1.064-0.933-3.092,2.317
		c-2.023,3.248-3.4,5.103-6.176,10.039c-2.775,4.935-3.293,5.496-4.633,10.811c-1.341,5.315-1.695,4.391-2.317,8.495
		c-0.622,4.104-1.4,8.389-1.546,9.266c-0.141,0.877,1.759-0.507,2.318,2.318c0.56,2.823,1.285,3.422,1.545,4.632
		c0.258,1.211,0.998,1.741,2.316-1.544c1.316-3.285,13.598-25.383,17.762-29.344c4.162-3.962,29.466-39.059,37.064-42.471
		c7.6-3.415,19.258-19.092,42.472-28.573c23.218-9.481,35.467-9.693,47.107-7.722c11.638,1.972,18.923,6.164,20.076,13.127
		c1.155,6.963-3.56,17.289-6.177,23.938c-2.615,6.652-4.941,19.708-6.178,29.345c-1.236,9.637-2.895,33.167-6.949,45.56
		c-4.057,12.396-4.354,19.141-9.268,23.939c-4.915,4.8-5.793,7.325-16.99,6.95c-11.194-0.373-14.672,0.773-14.672,0.773
		s-0.959,0.727,4.633,8.496c5.594,7.767,13.342,16.891,16.219,23.165c2.876,6.274,4.174,8.189,0.771,11.583
		c-3.402,3.396-5.756,3.169-6.178,7.725c-0.422,4.554,1.039,2.909,3.86,10.039c2.823,7.126,3.356,10.353,3.089,11.583
		c-0.266,1.228-4.039,1.271-6.949,2.314c-2.909,1.045-4.063-1.017-6.951,4.633c-2.886,5.649-2.031,5.439-0.771,11.584
		s0.434,10.927-3.861,12.354c-4.293,1.429-7.543,2.825-8.494,7.724c-0.949,4.896-3.929,3.973-3.861,7.723
		c0.068,3.748-0.53,9.076,1.545,14.672c2.076,5.596,0.904,6.572,3.088,13.899c2.186,7.329,1.931,11.126,4.635,15.445
		c2.704,4.317,9.229,10.296,4.633,16.989c-4.594,6.691-4.277,6.891-7.723,3.861c-3.445-3.033-3.266-5.271-3.089-10.813
		c0.179-5.543-1.435-10.191-2.315-16.219c-0.882-6.022-2.059-10.352-6.179-14.67c-4.119-4.319-8.867-6.847-12.354-5.405
		c-3.49,1.442-2.938,5.052-4.633,6.179c-1.697,1.123-6.41-2.563-8.495-2.318s-6.855,1.207-9.267,4.634
		c-2.412,3.428-10.043,8.788-12.355,3.089c-2.313-5.701,0.838-4.839,0.771-9.267c-0.063-4.428-1.453-11.085-6.178-9.267
		c-4.724,1.819-4.379,7.691-6.949-3.86c-2.57-11.553-6.44-31.1-10.811-40.155c-4.371-9.057-10.27-15.788-11.584-33.205
		c-1.314-17.418-1.435-16.904-3.861-24.713c-2.427-7.806-4.885-11.885-4.633-5.404c0.252,6.48-0.197,14.465-0.772,25.483
		c-0.574,11.017,0.028,15.882-2.316,21.622c-2.345,5.738-5.517,7.01-6.951,3.089c-1.433-3.923-3.569-7.782-4.632-15.445
		c-1.063-7.663-2.505-14.563-2.316-22.394c0.186-7.83-0.365-8.34-0.001-10.039c0.365-1.698,1.027-12.729-4.633,3.089
		c-5.66,15.819-4.168,15.745-9.267,28.571c-5.098,12.828-10.212,30.617-14.672,44.017c-4.461,13.399-6.119,14.608-6.179,18.533
		c-0.058,3.927,2.956,6.669-0.771,8.495c-3.728,1.825-6.989,1.795-9.267,1.545c-2.276-0.254-2.302-0.908-3.089,3.86
		c-0.788,4.769,1.143,4.527-0.001,9.267c-1.141,4.74-1.674,7.207-5.404,6.949c-3.73-0.256-5.921-3.04-9.268-6.176
		c-3.345-3.139-6.375-5.473-10.811-3.862c-4.437,1.61-4.311,2.884-6.95-0.772c-2.639-3.655-5.305-6.498-10.811-4.633
		c-5.506,1.864-4.485,1.801-6.95,8.494s-6.463,14.508-6.949,19.305c-0.489,4.799-1.248,6.469-3.09,11.584
		c-1.84,5.117-5.857,9.656-9.267,4.635c-3.409-5.025-4.831-8.195-1.545-11.585c3.288-3.388,6.065-10.626,8.495-15.444
		c2.431-4.82,8.287-16.767,9.268-23.938c0.979-7.174,1.738-6.172-0.771-12.355c-2.513-6.187-2.727-8.795-3.862-9.268
		c-1.137-0.472-4.716,0.512-7.723-3.09c-3.007-3.599-4.646-5.23-2.315-10.811c2.328-5.58-0.652-16.264-6.178-17.76
		c-5.529-1.498-18.145-0.014-6.95-13.901c11.192-13.888-1.779-17.532-0.001-15.444c1.779,2.09-10.373-1.998-1.544-13.899
		c8.829-11.901,16.334-21.055,18.533-23.938c2.198-2.883,4.743-5.51,2.315-6.951c-2.427-1.44-5.036,0.854-10.038,0.773
		c-5.001-0.081-8.998,2.741-18.532-8.494c-2.041-2.404-10.199-18.012-12.356-36.295c-2.146-18.188-3.965-33.679-5.405-38.61
		c-2.385-8.166-10.883-29.604-12.355-36.294s-4.879-18.08,6.949-21.623c11.83-3.542,17.822-4.002,25.484-3.861
		C117.247,84.247,108.323,83.677,126.573,85.649z"/>
	<path fill="#7F3F98" d="M589.944,278.084"/>
	<path fill="#581B57" d="M609.997,279.403"/>
</g>
<g id="Layer_2">
	
		<radialGradient id="SVGID_1_" cx="61.4707" cy="332.7979" r="181.4514" gradientTransform="matrix(-0.929 -0.3698 -0.3698 0.929 432.752 -66.1533)" gradientUnits="userSpaceOnUse">
		<stop  offset="0.0169" style="stop-color:#0E3151"/>
		<stop  offset="0.0433" style="stop-color:#0F3655"/>
		<stop  offset="0.2365" style="stop-color:#235875"/>
		<stop  offset="0.4225" style="stop-color:#327996"/>
		<stop  offset="0.5966" style="stop-color:#3E96B4"/>
		<stop  offset="0.756" style="stop-color:#46AECC"/>
		<stop  offset="0.8955" style="stop-color:#4BBEDD"/>
		<stop  offset="1" style="stop-color:#4BC7E6"/>
	</radialGradient>
	<path fill="url(#SVGID_1_)" d="M235.015,215.539c-7.908-4.791-13.353-10.902-10.434-13.092c1.616-1.212,7.043,3.362,7.043,3.362
		s-5.651-9.446-11.456-18.95c-6.01-9.839-22.348-25.285-30.833-28.661c-8.318-3.311-15.576-0.752-14.765,5.624
		c0.74,5.787-12.42-0.68-15.704,5.766c-2.29,4.49,2.601,8.205-1.69,10.92c-2.2,1.389-7.136,4.938-3.95,8.163
		c3.188,3.224,8.901,8.757,4.032,9.056c-4.866,0.298-8.055,5.734-4.161,8.589c3.771,2.762,9.223,0.688,7.691,4.549
		c-1.541,3.858-2.667,10.677,6.127,13.333c9.566,2.896,47.568-7.542,63.582-0.781C246.514,230.177,239.745,218.404,235.015,215.539z
		"/>
	
		<radialGradient id="SVGID_2_" cx="61.1465" cy="332.7969" r="181.7312" gradientTransform="matrix(-0.929 -0.3698 -0.3698 0.929 432.752 -66.1533)" gradientUnits="userSpaceOnUse">
		<stop  offset="0.0169" style="stop-color:#0E3151"/>
		<stop  offset="0.0433" style="stop-color:#0F3655"/>
		<stop  offset="0.2365" style="stop-color:#235875"/>
		<stop  offset="0.4225" style="stop-color:#327996"/>
		<stop  offset="0.5966" style="stop-color:#3E96B4"/>
		<stop  offset="0.756" style="stop-color:#46AECC"/>
		<stop  offset="0.8955" style="stop-color:#4BBEDD"/>
		<stop  offset="1" style="stop-color:#4BC7E6"/>
	</radialGradient>
	<path fill="url(#SVGID_2_)" d="M217.157,283.592c0.745,5.781-18.152,14.01-41.245,12.365c-9.108-0.65-25.853-5.26-20.03-26.555
		c5.822-21.291,4.036-22.951,20.068-34.621c16.033-11.669,46.259-18.194,54.656-14.854c8.395,3.342,6.423,5.706,2.343,13.091
		C225.933,245.736,215.103,267.689,217.157,283.592z"/>
	<path fill="#0E3151" d="M236.857,224.377c-0.724,0.744-6.838,11.523-12.506,23.837c-1.765,3.844-9.08,19.401-11.521,35.54
		c0.857-15.139,7.629-29.535,10.2-43.925c0.461-2.602-10.803,10.857-20.641,27.736c3.698-13.037,17.239-31.673,15.58-33.753
		c-2.026-2.538-15.954,7.782-27.418,17.165c4.327-6.426,19.168-16.047,17.899-18.996c-1.27-2.955-4.985-1.987-13.038,0.815
		c4.313-5.805,16.297-10.118,15.356-13.31c-0.931-3.149-14.135-2.254-18.745-1.671c8.315-3.126,13.282-1.403,13.007-4.152
		c-0.247-2.426-19.455-13.423-23.464-15.576c10.35,4.119,29.836,16.943,30.897,14.276c0.899-2.263-8.891-16.799-12.473-20.912
		c7.152,5.312,16.974,19.605,19.48,16.947c1.99-2.11-10.793-17.59-10.811-21.882c4.593,7.517,15.079,23.265,23.244,27.738
		C235.72,216.35,241.353,219.739,236.857,224.377z"/>
</g>
<g id="Layer_2_copy">
	
		<radialGradient id="SVGID_3_" cx="165.1387" cy="377.7471" r="181.453" gradientTransform="matrix(0.929 -0.3698 0.3698 0.929 -40.8359 -66.1533)" gradientUnits="userSpaceOnUse">
		<stop  offset="0.0169" style="stop-color:#0E3151"/>
		<stop  offset="0.0433" style="stop-color:#0F3655"/>
		<stop  offset="0.2365" style="stop-color:#235875"/>
		<stop  offset="0.4225" style="stop-color:#327996"/>
		<stop  offset="0.5966" style="stop-color:#3E96B4"/>
		<stop  offset="0.756" style="stop-color:#46AECC"/>
		<stop  offset="0.8955" style="stop-color:#4BBEDD"/>
		<stop  offset="1" style="stop-color:#4BC7E6"/>
	</radialGradient>
	<path fill="url(#SVGID_3_)" d="M269.83,218.969c7.908-4.791,13.352-10.902,10.434-13.092c-1.615-1.212-7.043,3.362-7.043,3.362
		s5.65-9.446,11.455-18.95c6.01-9.839,22.348-25.285,30.834-28.661c8.318-3.311,15.575-0.752,14.764,5.624
		c-0.74,5.787,12.421-0.68,15.705,5.766c2.289,4.49-2.602,8.205,1.689,10.92c2.201,1.389,7.137,4.938,3.951,8.163
		c-3.189,3.224-8.901,8.757-4.033,9.056c4.867,0.298,8.055,5.734,4.161,8.589c-3.771,2.762-9.223,0.688-7.691,4.549
		c1.54,3.858,2.667,10.677-6.128,13.333c-9.566,2.896-47.568-7.542-63.582-0.781C258.33,233.606,265.1,221.834,269.83,218.969z"/>
	
		<radialGradient id="SVGID_4_" cx="164.8145" cy="377.7471" r="181.732" gradientTransform="matrix(0.929 -0.3698 0.3698 0.929 -40.8359 -66.1533)" gradientUnits="userSpaceOnUse">
		<stop  offset="0.0169" style="stop-color:#0E3151"/>
		<stop  offset="0.0433" style="stop-color:#0F3655"/>
		<stop  offset="0.2365" style="stop-color:#235875"/>
		<stop  offset="0.4225" style="stop-color:#327996"/>
		<stop  offset="0.5966" style="stop-color:#3E96B4"/>
		<stop  offset="0.756" style="stop-color:#46AECC"/>
		<stop  offset="0.8955" style="stop-color:#4BBEDD"/>
		<stop  offset="1" style="stop-color:#4BC7E6"/>
	</radialGradient>
	<path fill="url(#SVGID_4_)" d="M287.688,287.021c-0.744,5.781,18.152,14.01,41.246,12.365c9.107-0.65,25.853-5.26,20.029-26.555
		c-5.822-21.291-4.035-22.951-20.068-34.621c-16.033-11.669-46.259-18.194-54.655-14.854c-8.396,3.342-6.423,5.706-2.343,13.091
		C278.912,249.166,289.742,271.119,287.688,287.021z"/>
	<path fill="#0E3151" d="M267.988,227.807c0.724,0.744,6.838,11.523,12.506,23.837c1.765,3.844,9.08,19.4,11.521,35.539
		c-0.857-15.139-7.629-29.535-10.201-43.925c-0.461-2.602,10.803,10.857,20.642,27.736c-3.698-13.037-17.239-31.673-15.58-33.753
		c2.026-2.538,15.954,7.782,27.418,17.165c-4.327-6.426-19.169-16.047-17.899-18.996c1.271-2.955,4.986-1.987,13.039,0.815
		c-4.314-5.805-16.297-10.118-15.357-13.31c0.932-3.149,14.136-2.254,18.746-1.671c-8.316-3.126-13.283-1.403-13.008-4.152
		c0.247-2.426,19.455-13.423,23.465-15.576c-10.351,4.119-29.836,16.943-30.897,14.276c-0.899-2.263,8.892-16.799,12.473-20.912
		c-7.152,5.312-16.974,19.605-19.479,16.947c-1.99-2.11,10.793-17.59,10.811-21.882c-4.594,7.517-15.079,23.265-23.244,27.738
		C269.125,219.78,263.492,223.168,267.988,227.807z"/>
</g>
</svg>
