<?xml version="1.0" encoding="utf-8"?>
<!-- Generator: Adobe Illustrator 16.0.0, SVG Export Plug-In . SVG Version: 6.00 Build 0)  -->
<!DOCTYPE svg PUBLIC "-//W3C//DTD SVG 1.1//EN" "http://www.w3.org/Graphics/SVG/1.1/DTD/svg11.dtd">
<svg version="1.1" id="Layer_1" xmlns="http://www.w3.org/2000/svg" xmlns:xlink="http://www.w3.org/1999/xlink" x="0px" y="0px"
	 width="500px" height="500px" viewBox="0 0 500 500" enable-background="new 0 0 500 500" xml:space="preserve">
<circle fill="#FFFFFF" cx="250" cy="250" r="250"/>
<g>
	<path fill-rule="evenodd" clip-rule="evenodd" fill-opacity="0.3" d="M366.604,144.753l-23.134,66.42l-73.696,102.055
		l-23.881,41.046l-29.291,30.037l-1.234-0.391l105.789,105.789l0,0c38.663-11.439,75.104-32.416,105.619-62.932
		c48.213-48.213,72.6-111.217,73.195-174.404L337.742,90.144L366.604,144.753z"/>
	<polygon fill-rule="evenodd" clip-rule="evenodd" fill="#955BA5" points="229.651,179.665 226.794,142.528 254.647,104.675 
		255.362,118.958 239.65,141.813 245.364,208.945 256.076,229.656 278.93,132.528 296.071,117.53 256.075,92.533 212.511,133.242 
		216.082,159.667 	"/>
	<path fill-rule="evenodd" clip-rule="evenodd" fill="#955BA5" d="M316.78,316.074l58.564-177.118l-37.137-49.279l-57.851,42.851
		l-23.568,104.984l-39.993-73.56l-79.273-9.285l-12.143,56.421l107.128,147.834l-17.14,24.997l22.854,5.713l5-4.285l2.855,9.998
		l12.141-12.854l20.712,0.714l9.999,9.999l3.572-6.428l11.426-3.571l14.283,24.997l-2.144-24.997l15.714-1.429l18.568,8.57
		l-2.857-9.283l7.143-1.43L316.78,316.074z M350.349,129.671l11.426,15.713l-20.711,63.562l-16.426,5.713L350.349,129.671z
		 M190.372,272.508l-52.137-66.419l5-27.853l59.277,88.559L190.372,272.508z"/>
</g>
</svg>
