<?xml version="1.0" encoding="utf-8"?>
<!-- Generator: Adobe Illustrator 16.0.0, SVG Export Plug-In . SVG Version: 6.00 Build 0)  -->
<!DOCTYPE svg PUBLIC "-//W3C//DTD SVG 1.1//EN" "http://www.w3.org/Graphics/SVG/1.1/DTD/svg11.dtd">
<svg version="1.1" id="Layer_1" xmlns="http://www.w3.org/2000/svg" xmlns:xlink="http://www.w3.org/1999/xlink" x="0px" y="0px"
	 width="500px" height="500px" viewBox="0 0 500 500" enable-background="new 0 0 500 500" xml:space="preserve">
<circle fill-rule="evenodd" clip-rule="evenodd" fill="#3B97D3" cx="250" cy="250" r="250"/>
<path opacity="0.2" d="M221.662,254.621l-11.381,41.232l-84.144,46.456L87.704,355.37L231.66,499.326
	c69.947,5.115,141.634-19.066,195.117-72.549c39.449-39.449,62.949-88.805,70.52-140.057l-72.83-74.078L221.662,254.621z"/>
<path fill-rule="evenodd" clip-rule="evenodd" fill="#2EBA9C" d="M360.62,342.033c19.422-12.584,38.406-26.771,48.998-32.001
	c10.594-5.229,16.316-10.124,19-20.001c2.684-9.875,0.104-17.637-6-23c-6.104-5.361-10.996-4.668-12-5.999
	c-1.004-1.333-0.256-2.563-1-7.001c-0.742-4.436-3.502-10.66-1.998-10.999s3.898,0.366,8,1c4.1,0.632,22.939-6.403,14.998-21.001
	c-7.939-14.596-5.518-7.819-13.998-16.999c-8.484-9.18-23.094-23.469-36-35c-32.613-29.14-38.465-19.88-47-28
	c-12.656-12.038-18.418-14.375-29-17c-10.584-2.625-12.982-1.318-14,0c-1.021,1.318-6.773,2.928-14,2
	c-7.229-0.928-22.678-1.184-29.001-4.999c-6.32-3.816-29.973-17.236-37-21.002c-7.026-3.763-12.594-7.031-14-6.999
	c-1.405,0.032,0.818-6.04-12-11.999c-12.818-5.96-21.465-5.738-26.999-4c-5.534,1.737-7.405,2.868-13,5.999s-9.153,4.652-16,5.001
	c-6.846,0.35-12.235-0.786-21.001,2c-8.764,2.786-14.609,9.356-15.999,11s-0.364,7.625-1,14c-0.637,6.375,1.243,10.647,3.999,18
	c2.758,7.352,16.627,29.185,23,37c6.373,7.815,16.567,16.137,18.001,19c1.434,2.862-0.895,2.123-7,2
	c-6.106-0.124-9.382,0.644-16.001,1c-6.617,0.355-9.827-1.778-14.999,2c-5.173,3.778-9.919,11.018-1.999,9
	c7.917-2.018,5.948-2.256,10.998-3c5.051-0.743,5.86,0.526,11.001,1c5.14,0.474,9.846,0.567,6.999,2
	c-2.846,1.432-3.817,0.625-8.999,3s-11.454,2.97-12.999,6c-1.548,3.029-6.352,6.344-9.002,8.999c-2.649,2.657-4.638,2.69-5,6
	c-0.361,3.311,4.809,8.359,9,3c4.193-5.357,7.05-7.973,13-10c5.951-2.026,23.064-6.253,16.001,4.001c-7.063,10.253-3.183,6.381-5,13
	s-1.661,11.03-1,14s5.728,8.888,7.999,0.999c2.273-7.888-0.244-9.486,2.001-12.999c2.243-3.515,3.116-7.381,6.999-10.001
	c3.885-2.617,6.52-5.451,10.002-7c3.48-1.547,4.329-3.655,5.999-0.999c1.671,2.656,3.951,6.965,7.001,9.001
	c3.048,2.035,3.746-1.62,4.998,6c1.254,7.618,2.15,16.902,7,13c4.852-3.904,15.568,29.67,16,30.998c0.434,1.33,7.586,14.027-4,20
	c-11.586,5.975-6.934,3.723-9.999,3.001c-3.064-0.723-2.718-3.958-4,0c-1.282,3.959,0.429,4.892-4,8c-4.431,3.106-3.713,3.463-9-3
	c-5.286-6.464-9.103-6.58-12.001-8.001c-2.896-1.42-8.797-1.424-3.999,4.001c4.798,5.424,5.997,8.746,7,13
	c1.001,4.253,7.945,8.703-6,5s-14.529-6.222-22.001-11.001c-7.471-4.778-7.77-6.783-16-8c-8.228-1.215-18.538-0.149-13.998,4
	c4.537,4.149,5.631,5.387,10.998,6c5.369,0.615,7.268,1.804,11,7c3.732,5.197,5.613,7.191,8.001,11.001
	c2.386,3.81,7.631,5.014-3.001,6.999c-10.631,1.986-12.363,1.305-19.999,3.001c-7.637,1.696-11.188,2.417-12.001,5.999
	c-0.811,3.584,1.533,8.171,8.001,6.001s9.626-4.296,19.999-2.001c10.373,2.296,12.188,0.313,22.001,5.001s12.253,6.079,21.999,5.999
	c9.747-0.079,16.379-1.843,26-7c9.623-5.156,19.488-18.689,27-24c7.514-5.309,19.893-16.156,19-27c-0.889-10.842-3.383-18.617-3-22
	c0.385-3.382-0.734-6.531,5.001-2s6.957,5.033,13.001,7c6.041,1.969,9.359,3.321,13,4.002c3.639,0.678,6.217,0.722,0,5.999
	c-6.219,5.276-9.954,8.893-14,13s-8.616,7.815-12,12c-3.384,4.183-5.194,7.407-7,9c-1.806,1.591-2.091,1.204-7.001,3.001
	c-4.908,1.793-1.99,3.984,0.001,3.999c1.991,0.014,2.966-1.464,1.001,0.999c-1.967,2.465-3.57,5.101-4.002,6
	c-0.43,0.9,0.754-3.175-5.999-1.999c-6.753,1.177-11.03,0.417-10.001,4c1.031,3.583,1.36,5.156,6.001,4s9.662-2.076,8.999-1.001
	c-0.662,1.077-0.521,2.489-7,4c-6.477,1.512-7.778,0.024-16,2c-8.22,1.978-11.836,3.369-12,6c-0.163,2.632,5.379,3.615,10.001,3.001
	s8.155-1.386,15.999-1.001c7.846,0.386,16.175,3.426,4.001,4.001c-12.175,0.573-21.618,0.715-27,2
	c-5.384,1.284-23.652,1.539-32.999,4.001c-9.35,2.459-8.52,1.432-13.001,6.999c-4.481,5.565-3.349,14.188,2,10
	s6.358-3.595,12.999-5.001c6.643-1.404,5.455-1.609,18.001-1.999s18.069-0.349,28,0c9.93,0.348,10.763,2.145,17.001,1.001
	c6.236-1.146,15.371-0.25,5.999,2.999c-9.374,3.249-8.276,2.59-13.999,6.001c-5.725,3.408-10.354,12.18-2.001,10.999
	c8.353-1.183,10.369-5.425,17-7c6.63-1.575,43.864-12.869,51-14c7.135-1.132,19.754-7.476,26.998-8.001
	c7.246-0.523,9.088-0.792,11.002-2.999s1.184-3.083,5-4C318.435,370.114,341.194,354.615,360.62,342.033z"/>
<path d="M600.401,130.738"/>
</svg>
