<?xml version="1.0" encoding="utf-8"?>
<!-- Generator: Adobe Illustrator 16.0.0, SVG Export Plug-In . SVG Version: 6.00 Build 0)  -->
<!DOCTYPE svg PUBLIC "-//W3C//DTD SVG 1.1//EN" "http://www.w3.org/Graphics/SVG/1.1/DTD/svg11.dtd">
<svg version="1.1" id="Layer_1" xmlns="http://www.w3.org/2000/svg" xmlns:xlink="http://www.w3.org/1999/xlink" x="0px" y="0px"
	 width="500px" height="500px" viewBox="0 0 500 500" enable-background="new 0 0 500 500" xml:space="preserve">
<circle fill="#94A4A5" cx="250.018" cy="249.915" r="250"/>
<path opacity="0.2" d="M108.971,232.378c-1.307,1.306-28.546,15.111-28.546,15.111l151.683,151.684l-22.575,13.246l82.606,83.945
	c108.899-18.48,193.816-107.369,206.281-218.201l-131.98-131.982C366.439,146.181,110.276,231.071,108.971,232.378z"/>
<path fill-rule="evenodd" clip-rule="evenodd" fill="#EDF0F1" d="M137.521,155.241c13.726-9.629,15.447-17.518,20.894-29.405
	c5.448-11.891,10.778-22.103,16.251-26.311c5.473-4.209,8.398-8.285,16.251-9.287c7.852-1.002,13.903-2.156,14.702,0.773
	c0.798,2.932,3.299,8.28,0.773,13.156c-2.524,4.875-3.055,6.985-3.868,10.833s-1.906,8.402,6.19,3.869
	c8.097-4.532,14.848-5.846,28.633-7.738c13.783-1.893,51.938-9.343,85.121,9.287c33.188,18.629,40.203,18.074,55.717,41.787
	c15.515,23.711,18.365,29.514,23.215,47.204c4.852,17.69,7.225,15.278,3.096,27.858c-4.127,12.58-0.147,10.492-8.512,23.99
	c-8.363,13.496-9.424,10.465-9.285,20.119c0.137,9.654,2.313,15.125,17.797,33.275c15.482,18.148,10.85,15.344,12.383,30.18
	c1.531,14.836,3.938,18.607,0.772,24.762c-3.163,6.156-6.084,9.805-13.155,11.609c-7.069,1.801-15.869,2.686-21.668,0.771
	c-5.797-1.91-9.466-2.84-15.476-5.416s-12.267-3.791-20.12-3.869c-7.852-0.078-34.369,0.932-47.979,4.643s-7.719,0.568-23.215,8.512
	c-15.495,7.947-14.986,7.404-25.537,12.381c-10.551,4.979-14.679,2.656-23.988,7.74c-9.311,5.084-8.59,3.592-12.382,5.416
	s-7.646,1.66,2.321-5.416c9.968-7.076,10.964-7.182,16.25-9.287c5.287-2.102,5.729-2.607,13.156-6.965
	c7.429-4.355,2.605-3.43,13.154-9.285c10.551-5.855,12.656-8.709,26.311-12.381c13.657-3.672,15.365-5.727,21.668-7.738
	c6.305-2.014,6.959-0.691,17.025-1.549s6.137-2.26,17.023-0.773c10.889,1.486,10.702,0.959,20.895,3.869
	c10.193,2.91,17.236,4.961,22.441,6.191s4.303,2.865,10.834,0.773s8.119-0.223,9.287-8.512c1.166-8.289-2.916-16.703-7.74-25.537
	c-4.822-8.834-10.596-16.83-17.024-22.441c-6.427-5.611-15.005-8.996-19.347-10.834c-4.338-1.836-4.971-2.086-10.832,0
	c-5.861,2.084-8.445-1.559-14.703,2.322c-6.26,3.881-6.389,4.814-10.834,4.643c-4.445-0.174-8.944-2.291-12.382-3.096
	c-3.438-0.803-2.758-2.664-10.06-2.322c-7.303,0.342-7.471-0.494-26.312-1.547c-18.84-1.055-25.836-0.887-37.144-0.773
	c-11.309,0.113-19.672-1.639-21.667-1.549c-1.996,0.092-4.644-6.189-4.644-6.189s8.017-0.574,11.607-0.775
	c3.592-0.197,7.508-0.191,10.061,0.002s7.337-2.855-3.096-3.096c-10.434-0.242-18.572,1.547-18.572,1.547l-2.322-3.094l11.607-5.418
	c0,0,3.348-1.387-1.547-1.547c-4.895-0.164-9.805,1.904-14.703,0.773c-4.9-1.133-19.346-10.061-19.346-10.061
	s-12.194,1.143-17.799,4.643c-5.604,3.5-10.834,3.096-10.834,3.096s-8.994-0.469-20.119,2.322c-1.883,0.471,1.818-0.809-3.869-0.773
	c-5.688,0.033-10.069,0.484-4.643-4.643c5.426-5.131,7.766-3.594,12.381-3.871s7.617-0.834,11.607-2.322
	c3.989-1.486,2.684-1.195,6.964-2.32c4.282-1.127,15.204-4.131,4.644-8.512c-10.56-4.381-18.635-5.256-22.441-6.191
	s-2.846,1.244-7.738,3.096s-11.877,5.037-17.799,6.189c-5.921,1.154-9.994,2.793-13.154-0.773c-3.16-3.564-2.555-4.721-6.191-5.416
	c-3.637-0.697-16.881-7.025-17.023-11.607c-0.145-4.582,3.699-14.76,6.189-17.025c2.491-2.266,10.539-20.305,13.156-22.44
	c3.166-2.587,5.555-18.177,11.22-24.745C110.05,180.022,118.633,168.494,137.521,155.241z"/>
<path d="M624.468,132.562"/>
</svg>
